<svg width="21" height="15" viewBox="0 0 21 15" fill="none" xmlns="http://www.w3.org/2000/svg">
<path d="M17.1312 11.7325L17.396 12.5183L15.5952 12.527L17.9423 7.36814L18.2926 0.935182C23.417 5.19134 18.2701 9.19768 16.6191 11.3539L17.1312 11.7325Z" fill="#932909"/>
<path d="M10.8686 13.086C7.60695 10.2225 3.25143 10.7679 0.614251 9.40973C0.31112 7.22267 1.82595 3.89229 2.65948 2.65373C8.18429 5.425 11.1769 7.06065 13.2267 6.94627C14.6422 6.60632 18.0828 4.34225 18.2634 0.926854C20.9112 2.93467 20.0003 6.03415 19.2139 7.33292L16.2024 11.4282C16.0162 11.669 16.0204 11.6381 16.1242 11.7229L17.396 12.5183L16.7361 15.0051L13.1154 14.0443C13.8943 14.251 11.4597 13.6049 10.8686 13.086Z" fill="#CE3C0F"/>
</svg>
