<svg width="125" height="31" viewBox="0 0 125 31" fill="none" xmlns="http://www.w3.org/2000/svg">
<path d="M0.707427 29.355L1.22343 28.667C1.88276 27.807 2.34143 26.904 2.59943 25.958C2.88609 25.012 3.02943 23.7507 3.02943 22.174V9.833C3.02943 8.31367 2.88609 7.081 2.59943 6.135C2.34143 5.16033 1.88276 4.243 1.22343 3.383L0.707427 2.652L1.22343 2.05H12.7044C13.8798 2.05 14.8114 1.99267 15.4994 1.878C16.1874 1.73466 16.7321 1.51967 17.1334 1.233L17.8214 0.716998L18.4664 1.233V8.156L17.1334 8.629L16.9184 7.683C16.6891 6.70833 16.4168 5.99167 16.1014 5.533C15.8148 5.04567 15.3991 4.70167 14.8544 4.501C14.3384 4.30033 13.6074 4.2 12.6614 4.2H9.30743C8.30409 4.2 7.64476 4.40067 7.32943 4.802C7.01409 5.20333 6.85643 6.006 6.85643 7.21V24.84C6.85643 26.044 7.01409 26.8753 7.32943 27.334C7.64476 27.764 8.30409 28.1367 9.30743 28.452L10.2534 28.667L9.78043 30H1.22343L0.707427 29.355ZM21.2796 28.667L22.2256 28.452C23.2002 28.194 23.8452 27.8357 24.1606 27.377C24.5046 26.8897 24.6766 26.044 24.6766 24.84V5.576C24.6766 5.232 24.6049 5.00266 24.4616 4.888C24.3182 4.74466 24.1032 4.673 23.8166 4.673H21.5806L21.1076 3.211C22.2256 2.781 23.7019 2.394 25.5366 2.05C27.3712 1.67733 29.1342 1.491 30.8256 1.491C34.6382 1.491 37.4762 2.351 39.3396 4.071C41.2029 5.791 42.1346 8.01267 42.1346 10.736C42.1346 12.4273 41.7906 13.961 41.1026 15.337C40.4432 16.713 39.4112 17.8167 38.0066 18.648C36.6306 19.4507 34.9106 19.852 32.8466 19.852C31.9292 19.852 31.1266 19.7373 30.4386 19.508C29.7506 19.25 29.4066 18.906 29.4066 18.476C29.4066 18.218 29.4496 18.003 29.5356 17.831C29.6502 17.6303 29.8079 17.53 30.0086 17.53C30.0946 17.53 30.3096 17.5873 30.6536 17.702C30.9976 17.788 31.4132 17.831 31.9006 17.831C33.8499 17.831 35.3692 17.2003 36.4586 15.939C37.5766 14.6777 38.1356 13.0007 38.1356 10.908C38.1356 8.78667 37.5479 7.05233 36.3726 5.705C35.2259 4.329 33.5919 3.641 31.4706 3.641C29.5212 3.641 28.5466 4.25733 28.5466 5.49V22.174C28.5466 23.7793 28.6756 25.055 28.9336 26.001C29.1916 26.9183 29.6502 27.807 30.3096 28.667L30.8256 29.355L30.3096 30H21.7526L21.2796 28.667ZM63.1643 30.559C62.9636 30.3583 62.7343 30.215 62.4763 30.129C62.2469 30.043 61.9316 30 61.5303 30H45.1043L44.6313 28.753L45.4913 28.538C46.4373 28.2513 47.0679 27.893 47.3833 27.463C47.6986 27.0043 47.8563 26.216 47.8563 25.098V9.833C47.8563 8.285 47.7273 7.038 47.4693 6.092C47.2113 5.146 46.7669 4.243 46.1363 3.383L45.6203 2.652L46.1363 2.05H58.0473C60.3119 2.05 61.7739 1.77767 62.4333 1.233L63.2073 0.716998L63.7663 1.233V8.156L62.4333 8.629L62.2183 7.683C61.8743 6.27833 61.4299 5.34667 60.8853 4.888C60.3406 4.42933 59.3946 4.2 58.0473 4.2H54.2203C53.2169 4.2 52.5433 4.40067 52.1993 4.802C51.8839 5.20333 51.7263 6.006 51.7263 7.21V14.692H56.6713C57.3306 14.692 57.8896 14.563 58.3483 14.305C58.8069 14.047 59.2799 13.5883 59.7673 12.929L60.0683 12.499L60.8423 12.929V19.594L59.5523 20.067L59.2943 19.078C59.0076 18.1893 58.5776 17.6017 58.0043 17.315C57.4309 17.0283 56.4276 16.885 54.9943 16.885H51.7263V24.84C51.7263 25.6713 51.7836 26.302 51.8983 26.732C52.0416 27.1333 52.2853 27.4057 52.6293 27.549C52.9733 27.6923 53.5036 27.764 54.2203 27.764H58.3913C59.3373 27.764 60.0683 27.678 60.5843 27.506C61.1003 27.3053 61.5016 26.9613 61.7883 26.474C62.1036 25.9867 62.3903 25.27 62.6483 24.324L62.9063 23.464L64.1963 23.851V30.559L63.4653 30.946L63.1643 30.559ZM77.3878 30.559C75.7825 30.559 74.2918 30.3153 72.9158 29.828C71.5398 29.3407 70.4218 28.624 69.5618 27.678C68.7305 26.732 68.3148 25.5853 68.3148 24.238C68.3148 23.034 68.6875 22.0593 69.4328 21.314C70.1782 20.54 71.1242 20.153 72.2708 20.153C72.5862 20.153 72.7868 20.1817 72.8728 20.239C72.9875 20.2677 73.0448 20.3823 73.0448 20.583C73.0448 20.669 72.9015 21.013 72.6148 21.615C72.3282 22.1883 72.1848 22.948 72.1848 23.894C72.1848 25.3273 72.6005 26.431 73.4318 27.205C74.2632 27.9503 75.5388 28.323 77.2588 28.323C79.1508 28.323 80.6272 27.8213 81.6878 26.818C82.7772 25.786 83.3218 24.367 83.3218 22.561C83.3218 20.6977 82.8058 19.164 81.7738 17.96C80.7705 16.756 79.2368 16.154 77.1728 16.154C76.6568 16.154 76.1838 16.197 75.7538 16.283C75.3525 16.3403 75.0515 16.369 74.8508 16.369C74.7362 16.369 74.6358 16.2973 74.5498 16.154C74.4638 16.0107 74.4208 15.8243 74.4208 15.595C74.4208 15.2223 74.5785 14.95 74.8938 14.778C75.2092 14.606 75.7968 14.434 76.6568 14.262C78.7208 13.8607 80.1112 13.2013 80.8278 12.284C81.5732 11.3667 81.9458 10.1197 81.9458 8.543C81.9458 7.02367 81.5302 5.834 80.6988 4.974C79.8675 4.114 78.7638 3.684 77.3878 3.684C75.6105 3.684 74.2345 4.04233 73.2598 4.759C72.3138 5.47567 71.5972 6.85167 71.1098 8.887L70.9378 9.747L69.6048 9.317V1.577L70.2498 1.104L70.9378 1.577C71.2818 1.89233 71.7692 2.05 72.3998 2.05C72.8298 2.05 73.4032 1.97833 74.1198 1.835C74.2632 1.80633 74.6932 1.749 75.4098 1.663C76.1265 1.54833 76.9578 1.491 77.9038 1.491C80.2258 1.491 82.1895 2.093 83.7948 3.297C85.4002 4.47233 86.2028 6.14933 86.2028 8.328C86.2028 11.424 84.3395 13.617 80.6128 14.907C83.1068 15.4517 84.8842 16.369 85.9448 17.659C87.0055 18.949 87.5358 20.669 87.5358 22.819C87.5358 24.3383 87.1202 25.6857 86.2889 26.861C85.4575 28.0077 84.2678 28.9107 82.7198 29.57C81.1718 30.2293 79.3945 30.559 77.3878 30.559ZM90.8606 28.667L91.8066 28.452C92.7813 28.194 93.4263 27.8357 93.7416 27.377C94.0856 26.8897 94.2576 26.044 94.2576 24.84V7.21C94.2576 6.03467 94.0856 5.20333 93.7416 4.716C93.4263 4.2 92.7813 3.82733 91.8066 3.598L90.8606 3.383L91.3336 2.05H99.8906L100.407 2.652L99.8906 3.383C99.26 4.27167 98.8013 5.189 98.5146 6.135C98.2566 7.081 98.1276 8.31367 98.1276 9.833V22.862C98.1276 24.9833 98.5576 26.3737 99.4176 27.033C100.278 27.6637 101.295 27.979 102.471 27.979C104.076 27.979 105.352 27.3913 106.298 26.216C107.272 25.0407 107.76 23.5213 107.76 21.658C107.76 20.5687 107.502 19.5653 106.986 18.648C106.498 17.702 105.81 16.9567 104.922 16.412C104.062 15.8673 103.116 15.595 102.084 15.595C101.396 15.595 100.822 15.6523 100.364 15.767C99.905 15.8817 99.6183 15.939 99.5036 15.939C99.3316 15.939 99.2026 15.853 99.1166 15.681C99.0306 15.509 98.9876 15.294 98.9876 15.036C98.9876 14.5773 99.346 14.2333 100.063 14.004C100.808 13.7747 101.711 13.66 102.772 13.66C104.52 13.66 106.068 14.0327 107.416 14.778C108.792 15.5233 109.852 16.5267 110.598 17.788C111.372 19.0207 111.759 20.368 111.759 21.83C111.759 24.3527 110.985 26.345 109.437 27.807C107.889 29.269 105.481 30 102.213 30H91.3336L90.8606 28.667ZM113.565 28.667L114.468 28.452C115.471 28.1367 116.145 27.7497 116.489 27.291C116.833 26.8323 117.005 26.0153 117.005 24.84V7.21C117.005 6.03467 116.818 5.20333 116.446 4.716C116.102 4.22867 115.442 3.856 114.468 3.598L113.565 3.383L113.995 2.05H122.595L123.068 2.652L122.595 3.383C121.935 4.243 121.462 5.16033 121.176 6.135C120.918 7.081 120.789 8.31367 120.789 9.833V25.098C120.789 26.216 120.946 27.0043 121.262 27.463C121.577 27.893 122.208 28.2513 123.154 28.538L124.014 28.753L123.584 30H113.995L113.565 28.667Z" fill="#F5F5F5"/>
</svg>
