<svg width="70" height="20" viewBox="0 0 70 20" fill="none" xmlns="http://www.w3.org/2000/svg">
<path d="M0.790493 7.58L1.07549 7.49C1.39549 7.4 1.60549 7.285 1.70549 7.145C1.80549 6.995 1.85549 6.73 1.85549 6.35V2.9C1.85549 2.51 1.80549 2.245 1.70549 2.105C1.60549 1.955 1.39549 1.835 1.07549 1.745L0.790493 1.655L0.940493 1.25H3.67049L3.82049 1.43L3.67049 1.655C3.46049 1.935 3.31049 2.235 3.22049 2.555C3.13049 2.865 3.08549 3.27 3.08549 3.77V6.35C3.08549 6.73 3.14049 6.985 3.25049 7.115C3.36049 7.235 3.58049 7.295 3.91049 7.295H5.20049C5.54049 7.295 5.77049 7.235 5.89049 7.115C6.01049 6.985 6.07049 6.73 6.07049 6.35V2.9C6.07049 2.52 6.01549 2.255 5.90549 2.105C5.79549 1.955 5.58049 1.835 5.26049 1.745L4.97549 1.655L5.12549 1.25H7.81049L7.96049 1.43L7.81049 1.655C7.60049 1.925 7.45049 2.215 7.36049 2.525C7.28049 2.835 7.24049 3.25 7.24049 3.77V6.44C7.24049 6.8 7.29049 7.035 7.39049 7.145C7.49049 7.245 7.70049 7.295 8.02049 7.295H9.40049C9.73049 7.295 9.94549 7.235 10.0455 7.115C10.1555 6.985 10.2105 6.73 10.2105 6.35V2.9C10.2105 2.52 10.1555 2.255 10.0455 2.105C9.93549 1.955 9.72049 1.835 9.40049 1.745L9.11549 1.655L9.25049 1.25H12.0105L12.1755 1.43L12.0105 1.655C11.8005 1.925 11.6505 2.215 11.5605 2.525C11.4805 2.835 11.4405 3.25 11.4405 3.77V6.44C11.4405 6.8 11.4905 7.05 11.5905 7.19C11.7005 7.32 11.9055 7.43 12.2055 7.52L12.4605 7.595L12.3255 8H0.940493L0.790493 7.58ZM17.0537 8.195C16.0337 8.195 15.2237 7.875 14.6237 7.235C14.0237 6.585 13.7237 5.715 13.7237 4.625C13.7237 3.535 14.0237 2.675 14.6237 2.045C15.2237 1.405 16.0337 1.085 17.0537 1.085C17.7237 1.085 18.3087 1.23 18.8087 1.52C19.3087 1.81 19.6937 2.22 19.9637 2.75C20.2337 3.28 20.3687 3.905 20.3687 4.625C20.3687 5.345 20.2287 5.975 19.9487 6.515C19.6787 7.055 19.2937 7.47 18.7937 7.76C18.2937 8.05 17.7137 8.195 17.0537 8.195ZM17.0237 7.46C17.5937 7.46 18.0537 7.205 18.4037 6.695C18.7637 6.175 18.9437 5.495 18.9437 4.655C18.9437 4.225 18.8837 3.795 18.7637 3.365C18.6437 2.925 18.4437 2.555 18.1637 2.255C17.8937 1.945 17.5387 1.79 17.0987 1.79C16.5087 1.79 16.0337 2.05 15.6737 2.57C15.3237 3.09 15.1487 3.78 15.1487 4.64C15.1487 5.5 15.3137 6.185 15.6437 6.695C15.9837 7.205 16.4437 7.46 17.0237 7.46ZM24.9352 11.795C24.4352 11.795 24.0052 11.7 23.6452 11.51C23.2952 11.33 23.0302 11.09 22.8502 10.79C22.6802 10.49 22.5952 10.175 22.5952 9.845C22.5952 9.385 22.7502 8.995 23.0602 8.675C23.3702 8.355 23.7952 8.195 24.3352 8.195C24.4152 8.195 24.4752 8.205 24.5152 8.225C24.5552 8.255 24.5752 8.29 24.5752 8.33C24.5752 8.37 24.5102 8.455 24.3802 8.585C24.2602 8.725 24.1502 8.89 24.0502 9.08C23.9602 9.27 23.9152 9.51 23.9152 9.8C23.9152 10.16 24.0202 10.46 24.2302 10.7C24.4502 10.95 24.7402 11.075 25.1002 11.075C25.6602 11.075 26.0752 10.84 26.3452 10.37C26.6152 9.91 26.7502 9.29 26.7502 8.51V6.5C26.5302 6.9 26.2102 7.215 25.7902 7.445C25.3802 7.675 24.9202 7.79 24.4102 7.79C23.7702 7.79 23.2702 7.595 22.9102 7.205C22.5602 6.805 22.3852 6.25 22.3852 5.54V2.54C22.3852 2.42 22.3652 2.335 22.3252 2.285C22.2852 2.235 22.2152 2.21 22.1152 2.21H21.5002L21.3952 1.88C21.6252 1.64 21.9052 1.445 22.2352 1.295C22.5752 1.145 22.8852 1.07 23.1652 1.07C23.2952 1.07 23.4002 1.11 23.4802 1.19C23.5702 1.26 23.6152 1.355 23.6152 1.475V5.225C23.6152 5.765 23.7252 6.175 23.9452 6.455C24.1652 6.735 24.4802 6.875 24.8902 6.875C25.5002 6.875 25.9752 6.65 26.3152 6.2C26.6552 5.75 26.8252 5.115 26.8252 4.295C26.8252 3.545 26.7952 2.99 26.7352 2.63C26.6752 2.27 26.5252 1.94 26.2852 1.64L26.1352 1.43L26.2852 1.235L27.9502 1.07V8.3C27.9502 9.41 27.6802 10.27 27.1402 10.88C26.6002 11.49 25.8652 11.795 24.9352 11.795ZM35.8608 7.79L36.0258 7.58C36.2358 7.31 36.3808 7.02 36.4608 6.71C36.5408 6.4 36.5808 5.99 36.5808 5.48V2.975C36.5808 2.595 36.5508 2.345 36.4908 2.225C36.4408 2.105 36.3258 2.045 36.1458 2.045H36.0108C35.7008 2.045 35.4608 2.075 35.2908 2.135C35.1308 2.195 35.0008 2.3 34.9008 2.45C34.8108 2.6 34.7258 2.835 34.6458 3.155L34.5558 3.425L34.1358 3.305V1.07L34.3458 0.889999L34.5558 1.07C34.6758 1.16 34.8508 1.225 35.0808 1.265C35.3108 1.305 35.6158 1.325 35.9958 1.325H38.4108C38.7908 1.325 39.0908 1.305 39.3108 1.265C39.5308 1.225 39.7008 1.16 39.8208 1.07L40.0308 0.889999L40.2558 1.07V3.305L39.8208 3.425L39.7608 3.155C39.6708 2.835 39.5758 2.6 39.4758 2.45C39.3858 2.3 39.2608 2.195 39.1008 2.135C38.9408 2.075 38.7108 2.045 38.4108 2.045H38.2308C38.0608 2.045 37.9458 2.105 37.8858 2.225C37.8358 2.345 37.8108 2.595 37.8108 2.975V6.35C37.8108 6.73 37.8608 6.995 37.9608 7.145C38.0608 7.285 38.2708 7.4 38.5908 7.49L38.9058 7.58L38.7408 8H36.0258L35.8608 7.79ZM44.2512 8.195C43.6212 8.195 43.0712 8.05 42.6012 7.76C42.1312 7.47 41.7662 7.065 41.5062 6.545C41.2462 6.015 41.1162 5.405 41.1162 4.715C41.1162 3.995 41.2612 3.36 41.5512 2.81C41.8412 2.26 42.2512 1.835 42.7812 1.535C43.3212 1.235 43.9412 1.085 44.6412 1.085C45.3812 1.085 45.9512 1.28 46.3512 1.67C46.7612 2.06 46.9662 2.53 46.9662 3.08C46.9662 3.46 46.8612 3.825 46.6512 4.175C46.4512 4.525 46.1512 4.81 45.7512 5.03C45.3612 5.25 44.9012 5.36 44.3712 5.36C44.0712 5.36 43.7462 5.31 43.3962 5.21C43.0462 5.1 42.8712 4.94 42.8712 4.73C42.8712 4.65 42.8912 4.58 42.9312 4.52C42.9712 4.46 43.0162 4.43 43.0662 4.43C43.0962 4.43 43.1862 4.46 43.3362 4.52C43.4962 4.57 43.7012 4.595 43.9512 4.595C44.5012 4.595 44.9262 4.445 45.2262 4.145C45.5262 3.845 45.6762 3.485 45.6762 3.065C45.6762 2.705 45.5562 2.395 45.3162 2.135C45.0862 1.875 44.7762 1.745 44.3862 1.745C43.7962 1.745 43.3362 2.005 43.0062 2.525C42.6862 3.035 42.5262 3.765 42.5262 4.715C42.5262 5.525 42.6962 6.16 43.0362 6.62C43.3862 7.07 43.8862 7.295 44.5362 7.295C45.3362 7.295 45.9962 7.035 46.5162 6.515C46.5462 6.485 46.5862 6.47 46.6362 6.47C46.7162 6.47 46.7962 6.51 46.8762 6.59C46.9662 6.67 47.0112 6.755 47.0112 6.845C47.0112 6.875 47.0012 6.905 46.9812 6.935C46.9612 6.955 46.9512 6.97 46.9512 6.98C46.6112 7.38 46.2062 7.685 45.7362 7.895C45.2762 8.095 44.7812 8.195 44.2512 8.195ZM50.754 8.195C50.314 8.195 49.904 8.07 49.524 7.82C49.154 7.56 48.854 7.185 48.624 6.695C48.404 6.195 48.294 5.59 48.294 4.88C48.294 3.71 48.609 2.785 49.239 2.105C49.879 1.425 50.739 1.085 51.819 1.085C52.179 1.085 52.669 1.14 53.289 1.25C53.749 1.33 54.164 1.385 54.534 1.415L54.714 1.58L54.519 1.835C54.449 1.955 54.399 2.05 54.369 2.12C54.349 2.18 54.339 2.265 54.339 2.375V6.8C54.339 7.08 54.484 7.22 54.774 7.22C54.994 7.22 55.219 7.14 55.449 6.98L55.704 7.325C55.464 7.595 55.209 7.81 54.939 7.97C54.669 8.12 54.424 8.195 54.204 8.195C53.824 8.195 53.549 8.085 53.379 7.865C53.209 7.635 53.124 7.265 53.124 6.755C52.764 7.285 52.389 7.66 51.999 7.88C51.619 8.09 51.204 8.195 50.754 8.195ZM51.279 7.13C52.039 7.13 52.654 6.72 53.124 5.9V2.225C52.734 1.965 52.294 1.835 51.804 1.835C51.154 1.835 50.644 2.08 50.274 2.57C49.914 3.05 49.734 3.735 49.734 4.625C49.734 5.485 49.879 6.12 50.169 6.53C50.469 6.93 50.839 7.13 51.279 7.13ZM57.8774 7.79L58.0424 7.58C58.2524 7.31 58.3974 7.02 58.4774 6.71C58.5574 6.4 58.5974 5.99 58.5974 5.48V2.975C58.5974 2.595 58.5674 2.345 58.5074 2.225C58.4574 2.105 58.3424 2.045 58.1624 2.045H58.0274C57.7174 2.045 57.4774 2.075 57.3074 2.135C57.1474 2.195 57.0174 2.3 56.9174 2.45C56.8274 2.6 56.7424 2.835 56.6624 3.155L56.5724 3.425L56.1524 3.305V1.07L56.3624 0.889999L56.5724 1.07C56.6924 1.16 56.8674 1.225 57.0974 1.265C57.3274 1.305 57.6324 1.325 58.0124 1.325H60.4274C60.8074 1.325 61.1074 1.305 61.3274 1.265C61.5474 1.225 61.7174 1.16 61.8374 1.07L62.0474 0.889999L62.2724 1.07V3.305L61.8374 3.425L61.7774 3.155C61.6874 2.835 61.5924 2.6 61.4924 2.45C61.4024 2.3 61.2774 2.195 61.1174 2.135C60.9574 2.075 60.7274 2.045 60.4274 2.045H60.2474C60.0774 2.045 59.9624 2.105 59.9024 2.225C59.8524 2.345 59.8274 2.595 59.8274 2.975V6.35C59.8274 6.73 59.8774 6.995 59.9774 7.145C60.0774 7.285 60.2874 7.4 60.6074 7.49L60.9224 7.58L60.7574 8H58.0424L57.8774 7.79ZM63.3278 11.42L63.4778 11.195C63.6478 10.965 63.7678 10.72 63.8378 10.46C63.9078 10.21 63.9428 9.87 63.9428 9.44V2.825C63.9428 2.695 63.9228 2.595 63.8828 2.525C63.8428 2.455 63.7678 2.405 63.6578 2.375L62.9528 2.21V1.79C63.0928 1.66 63.3628 1.535 63.7628 1.415C64.1628 1.295 64.5128 1.235 64.8128 1.235C65.0428 1.235 65.1578 1.445 65.1578 1.865V1.925C65.7378 1.365 66.3928 1.085 67.1228 1.085C67.6728 1.085 68.1678 1.225 68.6078 1.505C69.0478 1.785 69.3878 2.175 69.6278 2.675C69.8778 3.165 70.0028 3.73 70.0028 4.37C70.0028 5.09 69.8728 5.745 69.6128 6.335C69.3528 6.915 68.9928 7.37 68.5328 7.7C68.0828 8.03 67.5778 8.195 67.0178 8.195C66.4778 8.195 66.0278 8.07 65.6678 7.82C65.5778 7.77 65.5328 7.69 65.5328 7.58C65.5328 7.48 65.5478 7.4 65.5778 7.34C65.6178 7.27 65.6728 7.235 65.7428 7.235C65.7728 7.235 65.8678 7.275 66.0278 7.355C66.1978 7.425 66.4178 7.46 66.6878 7.46C67.2478 7.46 67.6978 7.195 68.0378 6.665C68.3878 6.135 68.5628 5.455 68.5628 4.625C68.5628 3.845 68.3878 3.21 68.0378 2.72C67.6978 2.22 67.2428 1.97 66.6728 1.97C66.3728 1.97 66.1028 2.01 65.8628 2.09C65.6228 2.17 65.3878 2.305 65.1578 2.495V10.115C65.1578 10.465 65.1928 10.71 65.2628 10.85C65.3428 10.99 65.4978 11.085 65.7278 11.135L65.9978 11.195L65.8778 11.6H63.4778L63.3278 11.42ZM6.39352 18.58L6.66352 18.49C6.98352 18.4 7.19352 18.285 7.29352 18.145C7.40352 17.995 7.45852 17.73 7.45852 17.35V13.9C7.45852 13.52 7.40352 13.255 7.29352 13.105C7.19352 12.955 6.98352 12.835 6.66352 12.745L6.39352 12.655L6.52852 12.25H9.22852L9.39352 12.43L9.22852 12.655C9.02852 12.945 8.88352 13.245 8.79352 13.555C8.71352 13.865 8.67352 14.27 8.67352 14.77V17.44C8.67352 17.8 8.72352 18.045 8.82352 18.175C8.92352 18.305 9.12852 18.42 9.43852 18.52L9.70852 18.595L9.57352 19H6.52852L6.39352 18.58ZM12.4835 19.195C12.1135 19.195 11.8035 19.095 11.5535 18.895C11.3135 18.695 11.0685 18.385 10.8185 17.965L9.87352 16.39C9.80352 16.27 9.71852 16.175 9.61852 16.105C9.51852 16.035 9.41352 15.98 9.30352 15.94C9.20352 15.89 9.13852 15.855 9.10852 15.835C9.06852 15.815 9.04852 15.76 9.04852 15.67C9.04852 15.49 9.12352 15.4 9.27352 15.4H9.52852L10.7435 13.915C10.9335 13.695 11.0285 13.435 11.0285 13.135C11.0285 12.975 10.9935 12.82 10.9235 12.67L10.8185 12.445L11.0435 12.25H13.2485L13.3985 12.67L13.1285 12.745C12.9285 12.805 12.7485 12.89 12.5885 13C12.4385 13.1 12.2885 13.245 12.1385 13.435L10.4285 15.565C10.8785 15.785 11.2085 16.065 11.4185 16.405L12.4685 18.115C12.5485 18.245 12.6185 18.34 12.6785 18.4C12.7485 18.46 12.8285 18.49 12.9185 18.49C13.0985 18.49 13.2685 18.43 13.4285 18.31L13.6385 18.685C13.3085 19.025 12.9235 19.195 12.4835 19.195ZM17.6469 19.195C16.6269 19.195 15.8169 18.875 15.2169 18.235C14.6169 17.585 14.3169 16.715 14.3169 15.625C14.3169 14.535 14.6169 13.675 15.2169 13.045C15.8169 12.405 16.6269 12.085 17.6469 12.085C18.3169 12.085 18.9019 12.23 19.4019 12.52C19.9019 12.81 20.2869 13.22 20.5569 13.75C20.8269 14.28 20.9619 14.905 20.9619 15.625C20.9619 16.345 20.8219 16.975 20.5419 17.515C20.2719 18.055 19.8869 18.47 19.3869 18.76C18.8869 19.05 18.3069 19.195 17.6469 19.195ZM17.6169 18.46C18.1869 18.46 18.6469 18.205 18.9969 17.695C19.3569 17.175 19.5369 16.495 19.5369 15.655C19.5369 15.225 19.4769 14.795 19.3569 14.365C19.2369 13.925 19.0369 13.555 18.7569 13.255C18.4869 12.945 18.1319 12.79 17.6919 12.79C17.1019 12.79 16.6269 13.05 16.2669 13.57C15.9169 14.09 15.7419 14.78 15.7419 15.64C15.7419 16.5 15.9069 17.185 16.2369 17.695C16.5769 18.205 17.0369 18.46 17.6169 18.46ZM25.4685 19.195C24.8385 19.195 24.2735 19.04 23.7735 18.73C23.2735 18.42 22.8785 17.995 22.5885 17.455C22.3085 16.915 22.1685 16.31 22.1685 15.64C22.1685 14.92 22.3035 14.295 22.5735 13.765C22.8435 13.225 23.2285 12.81 23.7285 12.52C24.2285 12.23 24.8085 12.085 25.4685 12.085C26.1685 12.085 26.7385 12.255 27.1785 12.595C27.6285 12.925 27.8535 13.355 27.8535 13.885C27.8535 14.275 27.7285 14.595 27.4785 14.845C27.2285 15.085 26.9085 15.205 26.5185 15.205C26.4285 15.205 26.3635 15.195 26.3235 15.175C26.2835 15.155 26.2635 15.12 26.2635 15.07C26.2635 15.04 26.2935 14.975 26.3535 14.875C26.4235 14.775 26.4835 14.655 26.5335 14.515C26.5835 14.365 26.6085 14.175 26.6085 13.945C26.6085 13.585 26.4885 13.305 26.2485 13.105C26.0185 12.895 25.7085 12.79 25.3185 12.79C24.7985 12.79 24.3785 13.045 24.0585 13.555C23.7485 14.055 23.5935 14.72 23.5935 15.55C23.5935 16.39 23.7785 17.055 24.1485 17.545C24.5285 18.035 25.0385 18.28 25.6785 18.28C26.0085 18.28 26.3185 18.225 26.6085 18.115C26.8985 18.005 27.1885 17.83 27.4785 17.59C27.4985 17.57 27.5385 17.56 27.5985 17.56C27.6785 17.56 27.7535 17.605 27.8235 17.695C27.9035 17.775 27.9435 17.86 27.9435 17.95C27.9435 18.02 27.9335 18.055 27.9135 18.055C27.5935 18.425 27.2185 18.71 26.7885 18.91C26.3685 19.1 25.9285 19.195 25.4685 19.195ZM30.4629 18.79L30.6279 18.58C30.8379 18.31 30.9829 18.02 31.0629 17.71C31.1429 17.4 31.1829 16.99 31.1829 16.48V13.975C31.1829 13.595 31.1529 13.345 31.0929 13.225C31.0429 13.105 30.9279 13.045 30.7479 13.045H30.6129C30.3029 13.045 30.0629 13.075 29.8929 13.135C29.7329 13.195 29.6029 13.3 29.5029 13.45C29.4129 13.6 29.3279 13.835 29.2479 14.155L29.1579 14.425L28.7379 14.305V12.07L28.9479 11.89L29.1579 12.07C29.2779 12.16 29.4529 12.225 29.6829 12.265C29.9129 12.305 30.2179 12.325 30.5979 12.325H33.0129C33.3929 12.325 33.6929 12.305 33.9129 12.265C34.1329 12.225 34.3029 12.16 34.4229 12.07L34.6329 11.89L34.8579 12.07V14.305L34.4229 14.425L34.3629 14.155C34.2729 13.835 34.1779 13.6 34.0779 13.45C33.9879 13.3 33.8629 13.195 33.7029 13.135C33.5429 13.075 33.3129 13.045 33.0129 13.045H32.8329C32.6629 13.045 32.5479 13.105 32.4879 13.225C32.4379 13.345 32.4129 13.595 32.4129 13.975V17.35C32.4129 17.73 32.4629 17.995 32.5629 18.145C32.6629 18.285 32.8729 18.4 33.1929 18.49L33.5079 18.58L33.3429 19H30.6279L30.4629 18.79ZM42.8883 19.195C41.9483 19.195 41.1983 18.91 40.6383 18.34C40.0883 17.76 39.7883 16.98 39.7383 16H38.0733V17.44C38.0733 17.8 38.1233 18.05 38.2233 18.19C38.3333 18.32 38.5383 18.43 38.8383 18.52L39.1083 18.595L38.9733 19H35.9283L35.7783 18.58L36.0633 18.49C36.3733 18.4 36.5783 18.285 36.6783 18.145C36.7883 17.995 36.8433 17.73 36.8433 17.35V13.9C36.8433 13.52 36.7883 13.255 36.6783 13.105C36.5783 12.955 36.3733 12.835 36.0633 12.745L35.7783 12.655L35.9283 12.25H38.6283L38.7933 12.43L38.6283 12.655C38.4283 12.925 38.2833 13.22 38.1933 13.54C38.1133 13.85 38.0733 14.26 38.0733 14.77V15.205H39.7383C39.7983 14.235 40.1033 13.475 40.6533 12.925C41.2033 12.365 41.9483 12.085 42.8883 12.085C43.5383 12.085 44.1033 12.23 44.5833 12.52C45.0733 12.81 45.4483 13.22 45.7083 13.75C45.9783 14.28 46.1133 14.905 46.1133 15.625C46.1133 16.345 45.9783 16.975 45.7083 17.515C45.4483 18.045 45.0733 18.46 44.5833 18.76C44.0933 19.05 43.5283 19.195 42.8883 19.195ZM42.8433 18.46C43.1933 18.46 43.5083 18.345 43.7883 18.115C44.0783 17.875 44.3033 17.545 44.4633 17.125C44.6333 16.695 44.7183 16.205 44.7183 15.655C44.7183 15.225 44.6583 14.795 44.5383 14.365C44.4283 13.925 44.2383 13.555 43.9683 13.255C43.7083 12.945 43.3633 12.79 42.9333 12.79C42.3533 12.79 41.9033 13.05 41.5833 13.57C41.2733 14.08 41.1183 14.77 41.1183 15.64C41.1183 16.52 41.2633 17.21 41.5533 17.71C41.8533 18.21 42.2833 18.46 42.8433 18.46ZM46.7045 18.58L47.0195 18.49C47.3295 18.4 47.5345 18.275 47.6345 18.115C47.7445 17.955 47.8295 17.7 47.8895 17.35L48.4295 13.66C48.4395 13.62 48.4445 13.56 48.4445 13.48C48.4445 13.28 48.3795 13.125 48.2495 13.015C48.1295 12.905 47.9395 12.815 47.6795 12.745L47.4245 12.655L47.5445 12.25H49.8245L51.7745 16.39L53.7545 12.25H55.5245L55.7345 12.43L55.5545 12.655C55.2345 13.085 55.0745 13.5 55.0745 13.9C55.0745 14.02 55.0895 14.14 55.1195 14.26L55.5845 16.57C55.6045 16.65 55.6245 16.76 55.6445 16.9C55.7645 17.43 55.8695 17.825 55.9595 18.085C56.0495 18.335 56.2095 18.575 56.4395 18.805L56.2895 19H53.5445L53.3945 18.58L53.6645 18.49C53.9245 18.42 54.1145 18.31 54.2345 18.16C54.3545 18.01 54.4145 17.81 54.4145 17.56C54.4145 17.43 54.3995 17.285 54.3695 17.125L53.8295 13.735L51.7895 18.1H51.3695L49.3145 13.735L48.8045 17.005C48.7845 17.145 48.7745 17.245 48.7745 17.305C48.7745 17.715 48.9245 18.14 49.2245 18.58L49.3895 18.805L49.2095 19H46.8695L46.7045 18.58ZM59.8873 19.195C59.4473 19.195 59.0373 19.07 58.6573 18.82C58.2873 18.56 57.9873 18.185 57.7573 17.695C57.5373 17.195 57.4273 16.59 57.4273 15.88C57.4273 14.71 57.7423 13.785 58.3723 13.105C59.0123 12.425 59.8723 12.085 60.9523 12.085C61.3123 12.085 61.8023 12.14 62.4223 12.25C62.8823 12.33 63.2973 12.385 63.6673 12.415L63.8473 12.58L63.6523 12.835C63.5823 12.955 63.5323 13.05 63.5023 13.12C63.4823 13.18 63.4723 13.265 63.4723 13.375V17.8C63.4723 18.08 63.6173 18.22 63.9073 18.22C64.1273 18.22 64.3523 18.14 64.5823 17.98L64.8373 18.325C64.5973 18.595 64.3423 18.81 64.0723 18.97C63.8023 19.12 63.5573 19.195 63.3373 19.195C62.9573 19.195 62.6823 19.085 62.5123 18.865C62.3423 18.635 62.2573 18.265 62.2573 17.755C61.8973 18.285 61.5223 18.66 61.1323 18.88C60.7523 19.09 60.3373 19.195 59.8873 19.195ZM60.4123 18.13C61.1723 18.13 61.7873 17.72 62.2573 16.9V13.225C61.8673 12.965 61.4273 12.835 60.9373 12.835C60.2873 12.835 59.7773 13.08 59.4073 13.57C59.0473 14.05 58.8673 14.735 58.8673 15.625C58.8673 16.485 59.0123 17.12 59.3023 17.53C59.6023 17.93 59.9723 18.13 60.4123 18.13Z" fill="white"/>
</svg>
