<svg width="11" height="4" viewBox="0 0 11 4" fill="none" xmlns="http://www.w3.org/2000/svg">
<path d="M10.6862 0.880186C10.6862 0.880175 10.6861 0.880573 10.6858 0.881408L10.6862 0.880186ZM10.4694 1.02062C10.5183 1.00921 10.5607 1.00052 10.5971 0.994254C10.5577 1.03452 10.5061 1.08146 10.4416 1.13436C10.2409 1.29875 9.9336 1.50576 9.53331 1.73013C8.73369 2.17836 7.57597 2.68877 6.18796 3.0629C4.79879 3.43734 3.49499 3.60673 2.53181 3.64955C2.0497 3.67098 1.65662 3.66053 1.38278 3.62937C1.2978 3.6197 1.22666 3.60829 1.1692 3.59593C1.20885 3.5802 1.25607 3.56323 1.31132 3.54509C1.55745 3.46425 1.92483 3.37185 2.3888 3.26268C2.60097 3.21275 2.83249 3.15951 3.0803 3.10253C3.91107 2.9115 4.92485 2.67838 6.00578 2.38702C7.21403 2.06134 8.27286 1.71351 9.08978 1.44516C9.22277 1.40147 9.34934 1.35989 9.46911 1.32086C9.89905 1.18073 10.2361 1.07509 10.4694 1.02062ZM1.01775 3.54569C1.01779 3.54568 1.01822 3.54599 1.01896 3.54662L1.01775 3.54569Z" stroke="white" stroke-width="0.3"/>
</svg>
