<svg width="125" height="31" viewBox="0 0 125 31" fill="none" xmlns="http://www.w3.org/2000/svg">
<mask id="path-1-outside-1_126_350" maskUnits="userSpaceOnUse" x="0" y="0" width="125" height="32" fill="black">
<rect fill="white" width="125" height="32"/>
<path d="M0.832793 29.355L1.34879 28.667C2.00813 27.807 2.46679 26.904 2.72479 25.958C3.01146 25.012 3.15479 23.7507 3.15479 22.174V9.833C3.15479 8.31367 3.01146 7.081 2.72479 6.135C2.46679 5.16033 2.00813 4.243 1.34879 3.383L0.832793 2.652L1.34879 2.05H12.8298C14.0051 2.05 14.9368 1.99267 15.6248 1.878C16.3128 1.73466 16.8575 1.51967 17.2588 1.233L17.9468 0.716998L18.5918 1.233V8.156L17.2588 8.629L17.0438 7.683C16.8145 6.70833 16.5421 5.99167 16.2268 5.533C15.9401 5.04567 15.5245 4.70167 14.9798 4.501C14.4638 4.30033 13.7328 4.2 12.7868 4.2H9.43279C8.42946 4.2 7.77013 4.40067 7.45479 4.802C7.13946 5.20333 6.98179 6.006 6.98179 7.21V24.84C6.98179 26.044 7.13946 26.8753 7.45479 27.334C7.77013 27.764 8.42946 28.1367 9.43279 28.452L10.3788 28.667L9.90579 30H1.34879L0.832793 29.355ZM21.4049 28.667L22.3509 28.452C23.3256 28.194 23.9706 27.8357 24.2859 27.377C24.6299 26.8897 24.8019 26.044 24.8019 24.84V5.576C24.8019 5.232 24.7303 5.00266 24.5869 4.888C24.4436 4.74466 24.2286 4.673 23.9419 4.673H21.7059L21.2329 3.211C22.3509 2.781 23.8273 2.394 25.6619 2.05C27.4966 1.67733 29.2596 1.491 30.9509 1.491C34.7636 1.491 37.6016 2.351 39.4649 4.071C41.3283 5.791 42.2599 8.01267 42.2599 10.736C42.2599 12.4273 41.9159 13.961 41.2279 15.337C40.5686 16.713 39.5366 17.8167 38.1319 18.648C36.7559 19.4507 35.0359 19.852 32.9719 19.852C32.0546 19.852 31.2519 19.7373 30.5639 19.508C29.8759 19.25 29.5319 18.906 29.5319 18.476C29.5319 18.218 29.5749 18.003 29.6609 17.831C29.7756 17.6303 29.9333 17.53 30.1339 17.53C30.2199 17.53 30.4349 17.5873 30.7789 17.702C31.1229 17.788 31.5386 17.831 32.0259 17.831C33.9753 17.831 35.4946 17.2003 36.5839 15.939C37.7019 14.6777 38.2609 13.0007 38.2609 10.908C38.2609 8.78667 37.6733 7.05233 36.4979 5.705C35.3513 4.329 33.7173 3.641 31.5959 3.641C29.6466 3.641 28.6719 4.25733 28.6719 5.49V22.174C28.6719 23.7793 28.8009 25.055 29.0589 26.001C29.3169 26.9183 29.7756 27.807 30.4349 28.667L30.9509 29.355L30.4349 30H21.8779L21.4049 28.667ZM63.2896 30.559C63.089 30.3583 62.8596 30.215 62.6016 30.129C62.3723 30.043 62.057 30 61.6556 30H45.2296L44.7566 28.753L45.6166 28.538C46.5626 28.2513 47.1933 27.893 47.5086 27.463C47.824 27.0043 47.9816 26.216 47.9816 25.098V9.833C47.9816 8.285 47.8526 7.038 47.5946 6.092C47.3366 5.146 46.8923 4.243 46.2616 3.383L45.7456 2.652L46.2616 2.05H58.1726C60.4373 2.05 61.8993 1.77767 62.5586 1.233L63.3326 0.716998L63.8916 1.233V8.156L62.5586 8.629L62.3436 7.683C61.9996 6.27833 61.5553 5.34667 61.0106 4.888C60.466 4.42933 59.52 4.2 58.1726 4.2H54.3456C53.3423 4.2 52.6686 4.40067 52.3246 4.802C52.0093 5.20333 51.8516 6.006 51.8516 7.21V14.692H56.7966C57.456 14.692 58.015 14.563 58.4736 14.305C58.9323 14.047 59.4053 13.5883 59.8926 12.929L60.1936 12.499L60.9676 12.929V19.594L59.6776 20.067L59.4196 19.078C59.133 18.1893 58.703 17.6017 58.1296 17.315C57.5563 17.0283 56.553 16.885 55.1196 16.885H51.8516V24.84C51.8516 25.6713 51.909 26.302 52.0236 26.732C52.167 27.1333 52.4106 27.4057 52.7546 27.549C53.0986 27.6923 53.629 27.764 54.3456 27.764H58.5166C59.4626 27.764 60.1936 27.678 60.7096 27.506C61.2256 27.3053 61.627 26.9613 61.9136 26.474C62.229 25.9867 62.5156 25.27 62.7736 24.324L63.0316 23.464L64.3216 23.851V30.559L63.5906 30.946L63.2896 30.559ZM77.5132 30.559C75.9079 30.559 74.4172 30.3153 73.0412 29.828C71.6652 29.3407 70.5472 28.624 69.6872 27.678C68.8559 26.732 68.4402 25.5853 68.4402 24.238C68.4402 23.034 68.8129 22.0593 69.5582 21.314C70.3035 20.54 71.2495 20.153 72.3962 20.153C72.7115 20.153 72.9122 20.1817 72.9982 20.239C73.1129 20.2677 73.1702 20.3823 73.1702 20.583C73.1702 20.669 73.0269 21.013 72.7402 21.615C72.4535 22.1883 72.3102 22.948 72.3102 23.894C72.3102 25.3273 72.7259 26.431 73.5572 27.205C74.3885 27.9503 75.6642 28.323 77.3842 28.323C79.2762 28.323 80.7525 27.8213 81.8132 26.818C82.9025 25.786 83.4472 24.367 83.4472 22.561C83.4472 20.6977 82.9312 19.164 81.8992 17.96C80.8959 16.756 79.3622 16.154 77.2982 16.154C76.7822 16.154 76.3092 16.197 75.8792 16.283C75.4779 16.3403 75.1769 16.369 74.9762 16.369C74.8615 16.369 74.7612 16.2973 74.6752 16.154C74.5892 16.0107 74.5462 15.8243 74.5462 15.595C74.5462 15.2223 74.7039 14.95 75.0192 14.778C75.3345 14.606 75.9222 14.434 76.7822 14.262C78.8462 13.8607 80.2365 13.2013 80.9532 12.284C81.6985 11.3667 82.0712 10.1197 82.0712 8.543C82.0712 7.02367 81.6555 5.834 80.8242 4.974C79.9929 4.114 78.8892 3.684 77.5132 3.684C75.7359 3.684 74.3599 4.04233 73.3852 4.759C72.4392 5.47567 71.7225 6.85167 71.2352 8.887L71.0632 9.747L69.7302 9.317V1.577L70.3752 1.104L71.0632 1.577C71.4072 1.89233 71.8945 2.05 72.5252 2.05C72.9552 2.05 73.5285 1.97833 74.2452 1.835C74.3885 1.80633 74.8185 1.749 75.5352 1.663C76.2519 1.54833 77.0832 1.491 78.0292 1.491C80.3512 1.491 82.3149 2.093 83.9202 3.297C85.5255 4.47233 86.3282 6.14933 86.3282 8.328C86.3282 11.424 84.4649 13.617 80.7382 14.907C83.2322 15.4517 85.0095 16.369 86.0702 17.659C87.1309 18.949 87.6612 20.669 87.6612 22.819C87.6612 24.3383 87.2455 25.6857 86.4142 26.861C85.5829 28.0077 84.3932 28.9107 82.8452 29.57C81.2972 30.2293 79.5199 30.559 77.5132 30.559ZM90.986 28.667L91.932 28.452C92.9067 28.194 93.5517 27.8357 93.867 27.377C94.211 26.8897 94.383 26.044 94.383 24.84V7.21C94.383 6.03467 94.211 5.20333 93.867 4.716C93.5517 4.2 92.9067 3.82733 91.932 3.598L90.986 3.383L91.459 2.05H100.016L100.532 2.652L100.016 3.383C99.3853 4.27167 98.9267 5.189 98.64 6.135C98.382 7.081 98.253 8.31367 98.253 9.833V22.862C98.253 24.9833 98.683 26.3737 99.543 27.033C100.403 27.6637 101.421 27.979 102.596 27.979C104.201 27.979 105.477 27.3913 106.423 26.216C107.398 25.0407 107.885 23.5213 107.885 21.658C107.885 20.5687 107.627 19.5653 107.111 18.648C106.624 17.702 105.936 16.9567 105.047 16.412C104.187 15.8673 103.241 15.595 102.209 15.595C101.521 15.595 100.948 15.6523 100.489 15.767C100.03 15.8817 99.7437 15.939 99.629 15.939C99.457 15.939 99.328 15.853 99.242 15.681C99.156 15.509 99.113 15.294 99.113 15.036C99.113 14.5773 99.4713 14.2333 100.188 14.004C100.933 13.7747 101.836 13.66 102.897 13.66C104.646 13.66 106.194 14.0327 107.541 14.778C108.917 15.5233 109.978 16.5267 110.723 17.788C111.497 19.0207 111.884 20.368 111.884 21.83C111.884 24.3527 111.11 26.345 109.562 27.807C108.014 29.269 105.606 30 102.338 30H91.459L90.986 28.667ZM113.69 28.667L114.593 28.452C115.596 28.1367 116.27 27.7497 116.614 27.291C116.958 26.8323 117.13 26.0153 117.13 24.84V7.21C117.13 6.03467 116.944 5.20333 116.571 4.716C116.227 4.22867 115.568 3.856 114.593 3.598L113.69 3.383L114.12 2.05H122.72L123.193 2.652L122.72 3.383C122.061 4.243 121.588 5.16033 121.301 6.135C121.043 7.081 120.914 8.31367 120.914 9.833V25.098C120.914 26.216 121.072 27.0043 121.387 27.463C121.702 27.893 122.333 28.2513 123.279 28.538L124.139 28.753L123.709 30H114.12L113.69 28.667Z"/>
</mask>
<path d="M0.832793 29.355L0.432793 29.055L0.200384 29.3649L0.442359 29.6673L0.832793 29.355ZM1.34879 28.667L0.951968 28.3628L0.948793 28.367L1.34879 28.667ZM2.72479 25.958L2.24609 25.8129L2.24241 25.8264L2.72479 25.958ZM2.72479 6.135L2.24144 6.26295L2.24371 6.27152L2.24628 6.28L2.72479 6.135ZM1.34879 3.383L0.940309 3.67134L0.945993 3.67939L0.95199 3.68722L1.34879 3.383ZM0.832793 2.652L0.453165 2.3266L0.199765 2.62224L0.424309 2.94034L0.832793 2.652ZM1.34879 2.05V1.55H1.11883L0.969165 1.7246L1.34879 2.05ZM15.6248 1.878L15.707 2.3712L15.7169 2.36954L15.7268 2.36749L15.6248 1.878ZM17.2588 1.233L17.5495 1.63998L17.5588 1.633L17.2588 1.233ZM17.9468 0.716998L18.2591 0.326564L17.9567 0.0845879L17.6468 0.316998L17.9468 0.716998ZM18.5918 1.233H19.0918V0.992687L18.9041 0.842565L18.5918 1.233ZM18.5918 8.156L18.759 8.62721L19.0918 8.50912V8.156H18.5918ZM17.2588 8.629L16.7712 8.73981L16.8959 9.28832L17.426 9.10021L17.2588 8.629ZM17.0438 7.683L17.5314 7.57218L17.5305 7.56848L17.0438 7.683ZM16.2268 5.533L15.7958 5.78651L15.8048 5.80172L15.8148 5.81626L16.2268 5.533ZM14.9798 4.501L14.7985 4.96707L14.8069 4.97017L14.9798 4.501ZM7.45479 4.802L7.06163 4.49309L7.06163 4.49309L7.45479 4.802ZM7.45479 27.334L7.04277 27.6173L7.04709 27.6235L7.05159 27.6297L7.45479 27.334ZM9.43279 28.452L9.28288 28.929L9.30222 28.9351L9.32198 28.9396L9.43279 28.452ZM10.3788 28.667L10.85 28.8342L11.0381 28.3041L10.4896 28.1794L10.3788 28.667ZM9.90579 30V30.5H10.2589L10.377 30.1672L9.90579 30ZM1.34879 30L0.958359 30.3123L1.10848 30.5H1.34879V30ZM1.23279 29.655L1.74879 28.967L0.948793 28.367L0.432793 29.055L1.23279 29.655ZM1.7456 28.9712C2.44023 28.0652 2.9304 27.1044 3.20718 26.0896L2.24241 25.8264C2.00318 26.7036 1.57603 27.5488 0.95199 28.3628L1.7456 28.9712ZM3.20331 26.103C3.5101 25.0906 3.65479 23.7743 3.65479 22.174H2.65479C2.65479 23.727 2.51282 24.9334 2.24628 25.813L3.20331 26.103ZM3.65479 22.174V9.833H2.65479V22.174H3.65479ZM3.65479 9.833C3.65479 8.2879 3.5097 7.00109 3.20331 5.99L2.24628 6.28C2.51322 7.1609 2.65479 8.33943 2.65479 9.833H3.65479ZM3.20815 6.00705C2.932 4.96383 2.44211 3.98727 1.7456 3.07878L0.95199 3.68722C1.57415 4.49872 2.00159 5.35684 2.24144 6.26295L3.20815 6.00705ZM1.75728 3.09466L1.24128 2.36366L0.424309 2.94034L0.940309 3.67134L1.75728 3.09466ZM1.21242 2.97739L1.72842 2.37539L0.969165 1.7246L0.453165 2.3266L1.21242 2.97739ZM1.34879 2.55H12.8298V1.55H1.34879V2.55ZM12.8298 2.55C14.0167 2.55 14.9797 2.49242 15.707 2.3712L15.5426 1.3848C14.8939 1.49291 13.9935 1.55 12.8298 1.55V2.55ZM15.7268 2.36749C16.456 2.21557 17.073 1.98018 17.5494 1.63987L16.9682 0.826132C16.6419 1.05915 16.1696 1.25376 15.5228 1.38851L15.7268 2.36749ZM17.5588 1.633L18.2468 1.117L17.6468 0.316998L16.9588 0.832999L17.5588 1.633ZM17.6344 1.10743L18.2794 1.62343L18.9041 0.842565L18.2591 0.326564L17.6344 1.10743ZM18.0918 1.233V8.156H19.0918V1.233H18.0918ZM18.4246 7.68479L17.0916 8.15779L17.426 9.10021L18.759 8.62721L18.4246 7.68479ZM17.7464 8.51819L17.5314 7.57219L16.5562 7.79381L16.7712 8.73981L17.7464 8.51819ZM17.5305 7.56848C17.2965 6.57379 17.0069 5.78518 16.6388 5.24974L15.8148 5.81626C16.0773 6.19816 16.3325 6.84287 16.5571 7.79752L17.5305 7.56848ZM16.6578 5.27949C16.3109 4.68977 15.8025 4.27126 15.1526 4.03183L14.8069 4.97017C15.2464 5.13207 15.5694 5.40156 15.7958 5.78651L16.6578 5.27949ZM15.161 4.035C14.5603 3.80138 13.7572 3.7 12.7868 3.7V4.7C13.7084 4.7 14.3673 4.79928 14.7986 4.967L15.161 4.035ZM12.7868 3.7H9.43279V4.7H12.7868V3.7ZM9.43279 3.7C8.41066 3.7 7.53177 3.89474 7.06163 4.49309L7.84795 5.11091C8.00849 4.90659 8.44826 4.7 9.43279 4.7V3.7ZM7.06163 4.49309C6.83431 4.78241 6.69529 5.17148 6.60942 5.60863C6.52218 6.05274 6.48179 6.58927 6.48179 7.21H7.48179C7.48179 6.62673 7.52024 6.15992 7.59067 5.80137C7.66247 5.43585 7.75994 5.22292 7.84795 5.11091L7.06163 4.49309ZM6.48179 7.21V24.84H7.48179V7.21H6.48179ZM6.48179 24.84C6.48179 26.0514 6.63349 27.0219 7.04277 27.6173L7.86681 27.0507C7.64544 26.7287 7.48179 26.0366 7.48179 24.84H6.48179ZM7.05159 27.6297C7.46692 28.196 8.26097 28.6078 9.28288 28.929L9.58271 27.975C8.59795 27.6655 8.07334 27.332 7.858 27.0383L7.05159 27.6297ZM9.32198 28.9396L10.268 29.1546L10.4896 28.1794L9.5436 27.9644L9.32198 28.9396ZM9.90758 28.4998L9.43458 29.8328L10.377 30.1672L10.85 28.8342L9.90758 28.4998ZM9.90579 29.5H1.34879V30.5H9.90579V29.5ZM1.73923 29.6877L1.22323 29.0427L0.442359 29.6673L0.958359 30.3123L1.73923 29.6877ZM21.4049 28.667L21.2941 28.1794L20.7456 28.3041L20.9337 28.8342L21.4049 28.667ZM22.3509 28.452L22.4617 28.9396L22.4703 28.9376L22.4789 28.9354L22.3509 28.452ZM24.2859 27.377L23.8774 27.0886L23.8739 27.0937L24.2859 27.377ZM24.5869 4.888L24.2334 5.24155L24.253 5.26113L24.2746 5.27843L24.5869 4.888ZM21.7059 4.673L21.2302 4.82691L21.3422 5.173H21.7059V4.673ZM21.2329 3.211L21.0534 2.74433L20.6114 2.91433L20.7572 3.36491L21.2329 3.211ZM25.6619 2.05L25.7541 2.54149L25.7615 2.53999L25.6619 2.05ZM41.2279 15.337L40.7807 15.1134L40.777 15.1209L41.2279 15.337ZM38.1319 18.648L38.3839 19.0799L38.3866 19.0783L38.1319 18.648ZM30.5639 19.508L30.3884 19.9762L30.397 19.9794L30.4058 19.9823L30.5639 19.508ZM29.6609 17.831L29.2268 17.5829L29.2199 17.595L29.2137 17.6074L29.6609 17.831ZM30.7789 17.702L30.6208 18.1763L30.639 18.1824L30.6577 18.1871L30.7789 17.702ZM36.5839 15.939L36.2097 15.6073L36.2055 15.6122L36.5839 15.939ZM36.4979 5.705L36.1137 6.02517L36.1212 6.03368L36.4979 5.705ZM29.0589 26.001L28.5765 26.1326L28.5776 26.1364L29.0589 26.001ZM30.4349 28.667L30.835 28.367L30.8317 28.3628L30.4349 28.667ZM30.9509 29.355L31.3414 29.6673L31.5833 29.3649L31.3509 29.055L30.9509 29.355ZM30.4349 30V30.5H30.6752L30.8254 30.3123L30.4349 30ZM21.8779 30L21.4067 30.1672L21.5248 30.5H21.8779V30ZM21.5157 29.1546L22.4617 28.9396L22.2401 27.9644L21.2941 28.1794L21.5157 29.1546ZM22.4789 28.9354C23.4855 28.6689 24.2782 28.2708 24.698 27.6603L23.8739 27.0937C23.663 27.4006 23.1657 27.7191 22.223 27.9686L22.4789 28.9354ZM24.6944 27.6653C25.1337 27.043 25.3019 26.0603 25.3019 24.84H24.3019C24.3019 26.0277 24.1262 26.7363 23.8774 27.0887L24.6944 27.6653ZM25.3019 24.84V5.576H24.3019V24.84H25.3019ZM25.3019 5.576C25.3019 5.20327 25.2321 4.76384 24.8993 4.49756L24.2746 5.27843C24.2477 5.25695 24.2558 5.24652 24.2709 5.29514C24.2867 5.34564 24.3019 5.43469 24.3019 5.576H25.3019ZM24.9405 4.53444C24.6703 4.26427 24.3057 4.173 23.9419 4.173V5.173C24.1515 5.173 24.2169 5.22506 24.2334 5.24155L24.9405 4.53444ZM23.9419 4.173H21.7059V5.173H23.9419V4.173ZM22.1817 4.51909L21.7087 3.05709L20.7572 3.36491L21.2302 4.82691L22.1817 4.51909ZM21.4124 3.67767C22.491 3.26282 23.9347 2.88257 25.7541 2.54143L25.5698 1.55856C23.7198 1.90543 22.2108 2.29918 21.0534 2.74433L21.4124 3.67767ZM25.7615 2.53999C27.5668 2.17328 29.2964 1.991 30.9509 1.991V0.990998C29.2228 0.990998 27.4264 1.18138 25.5624 1.56L25.7615 2.53999ZM30.9509 1.991C34.6997 1.991 37.3919 2.8379 39.1258 4.4384L39.8041 3.7036C37.8113 1.8641 34.8275 0.990998 30.9509 0.990998V1.991ZM39.1258 4.4384C40.8784 6.05618 41.7599 8.14065 41.7599 10.736H42.7599C42.7599 7.88468 41.7781 5.52582 39.8041 3.7036L39.1258 4.4384ZM41.7599 10.736C41.7599 12.3575 41.4307 13.8135 40.7807 15.1134L41.6751 15.5606C42.4012 14.1085 42.7599 12.4971 42.7599 10.736H41.7599ZM40.777 15.1209C40.1635 16.4014 39.203 17.4331 37.8773 18.2177L38.3866 19.0783C39.8702 18.2002 40.9737 17.0246 41.6788 15.5531L40.777 15.1209ZM37.88 18.2161C36.5999 18.9628 34.973 19.352 32.9719 19.352V20.352C35.0989 20.352 36.912 19.9385 38.3839 19.0799L37.88 18.2161ZM32.9719 19.352C32.0948 19.352 31.3476 19.2422 30.722 19.0337L30.4058 19.9823C31.1563 20.2325 32.0144 20.352 32.9719 20.352V19.352ZM30.7395 19.0398C30.0936 18.7976 30.0319 18.5716 30.0319 18.476H29.0319C29.0319 19.2404 29.6583 19.7024 30.3884 19.9762L30.7395 19.0398ZM30.0319 18.476C30.0319 18.2703 30.0666 18.1376 30.1081 18.0546L29.2137 17.6074C29.0832 17.8684 29.0319 18.1657 29.0319 18.476H30.0319ZM30.0951 18.0791C30.1215 18.0328 30.1377 18.0245 30.1336 18.0271C30.1319 18.0282 30.129 18.0296 30.1263 18.0303C30.1239 18.031 30.1258 18.03 30.1339 18.03V17.03C29.7234 17.03 29.4143 17.2548 29.2268 17.5829L30.0951 18.0791ZM30.1339 18.03C30.1088 18.03 30.1024 18.0268 30.1291 18.0319C30.1509 18.0361 30.1841 18.0436 30.2309 18.0561C30.3244 18.081 30.4533 18.1205 30.6208 18.1763L30.937 17.2277C30.7606 17.1688 30.61 17.1223 30.4885 17.0899C30.3849 17.0623 30.2507 17.03 30.1339 17.03V18.03ZM30.6577 18.1871C31.053 18.2859 31.5118 18.331 32.0259 18.331V17.331C31.5654 17.331 31.1929 17.2901 30.9002 17.2169L30.6577 18.1871ZM32.0259 18.331C34.0933 18.331 35.7616 17.6562 36.9623 16.2658L36.2055 15.6122C35.2276 16.7445 33.8572 17.331 32.0259 17.331V18.331ZM36.9581 16.2707C38.1755 14.8972 38.7609 13.0922 38.7609 10.908H37.7609C37.7609 12.9092 37.2284 14.4581 36.2098 15.6073L36.9581 16.2707ZM38.7609 10.908C38.7609 8.68953 38.1438 6.83113 36.8747 5.37632L36.1212 6.03368C37.2027 7.27353 37.7609 8.8838 37.7609 10.908H38.7609ZM36.882 5.38491C35.6226 3.87352 33.8354 3.141 31.5959 3.141V4.141C33.5992 4.141 35.08 4.78448 36.1138 6.02509L36.882 5.38491ZM31.5959 3.141C30.5847 3.141 29.7409 3.29795 29.1357 3.68065C28.4919 4.08779 28.1719 4.7164 28.1719 5.49H29.1719C29.1719 5.03093 29.3394 4.73504 29.6702 4.52585C30.0396 4.29221 30.6578 4.141 31.5959 4.141V3.141ZM28.1719 5.49V22.174H29.1719V5.49H28.1719ZM28.1719 22.174C28.1719 23.7994 28.3018 25.1252 28.5766 26.1326L29.5413 25.8694C29.3 24.9848 29.1719 23.7593 29.1719 22.174H28.1719ZM28.5776 26.1364C28.855 27.1227 29.3454 28.0677 30.0381 28.9712L30.8317 28.3628C30.2058 27.5463 29.7789 26.714 29.5403 25.8656L28.5776 26.1364ZM30.0349 28.967L30.5509 29.655L31.3509 29.055L30.8349 28.367L30.0349 28.967ZM30.5605 29.0427L30.0445 29.6877L30.8254 30.3123L31.3414 29.6673L30.5605 29.0427ZM30.4349 29.5H21.8779V30.5H30.4349V29.5ZM22.3491 29.8328L21.8761 28.4998L20.9337 28.8342L21.4067 30.1672L22.3491 29.8328ZM63.2896 30.559L63.6843 30.252L63.6652 30.2275L63.6432 30.2054L63.2896 30.559ZM62.6016 30.129L62.4261 30.5972L62.4347 30.6004L62.4435 30.6033L62.6016 30.129ZM45.2296 30L44.7621 30.1773L44.8845 30.5H45.2296V30ZM44.7566 28.753L44.6354 28.2679L44.0896 28.4044L44.2891 28.9303L44.7566 28.753ZM45.6166 28.538L45.7379 29.0231L45.7498 29.0201L45.7616 29.0165L45.6166 28.538ZM47.5086 27.463L47.9118 27.7587L47.9163 27.7525L47.9206 27.7463L47.5086 27.463ZM47.5946 6.092L48.077 5.96044L48.077 5.96044L47.5946 6.092ZM46.2616 3.383L45.8531 3.67139L45.8584 3.67868L46.2616 3.383ZM45.7456 2.652L45.366 2.3266L45.1126 2.62224L45.3371 2.94034L45.7456 2.652ZM46.2616 2.05V1.55H46.0317L45.882 1.7246L46.2616 2.05ZM62.5586 1.233L62.2813 0.816974L62.2599 0.831193L62.2402 0.847518L62.5586 1.233ZM63.3326 0.716998L63.6718 0.349597L63.3826 0.0827211L63.0553 0.300973L63.3326 0.716998ZM63.8916 1.233H64.3916V1.01408L64.2308 0.865598L63.8916 1.233ZM63.8916 8.156L64.0588 8.62721L64.3916 8.50912V8.156H63.8916ZM62.5586 8.629L62.0711 8.73981L62.1957 9.28832L62.7258 9.10021L62.5586 8.629ZM62.3436 7.683L62.8313 7.57217L62.8293 7.56406L62.3436 7.683ZM61.0106 4.888L61.3327 4.50554L61.3327 4.50554L61.0106 4.888ZM52.3246 4.802L51.945 4.4766L51.9381 4.4847L51.9315 4.49309L52.3246 4.802ZM51.8516 14.692H51.3516V15.192H51.8516V14.692ZM59.8926 12.929L60.2948 13.2263L60.3022 13.2157L59.8926 12.929ZM60.1936 12.499L60.4364 12.0619L60.0425 11.843L59.784 12.2123L60.1936 12.499ZM60.9676 12.929H61.4676V12.6348L61.2104 12.4919L60.9676 12.929ZM60.9676 19.594L61.1397 20.0634L61.4676 19.9432V19.594H60.9676ZM59.6776 20.067L59.1938 20.1932L59.3328 20.726L59.8497 20.5364L59.6776 20.067ZM59.4196 19.078L59.9034 18.9518L59.8998 18.938L59.8955 18.9245L59.4196 19.078ZM58.1296 17.315L57.906 17.7622L57.906 17.7622L58.1296 17.315ZM51.8516 16.885V16.385H51.3516V16.885H51.8516ZM52.0236 26.732L51.5405 26.8608L51.5458 26.8808L51.5528 26.9002L52.0236 26.732ZM52.7546 27.549L52.9469 27.0875L52.9469 27.0875L52.7546 27.549ZM60.7096 27.506L60.8677 27.9803L60.8794 27.9765L60.8908 27.972L60.7096 27.506ZM61.9136 26.474L61.4938 26.2024L61.4881 26.2113L61.4827 26.2205L61.9136 26.474ZM62.7736 24.324L62.2946 24.1803L62.2912 24.1924L62.7736 24.324ZM63.0316 23.464L63.1753 22.9851L62.6964 22.8414L62.5527 23.3203L63.0316 23.464ZM64.3216 23.851H64.8216V23.479L64.4653 23.3721L64.3216 23.851ZM64.3216 30.559L64.5556 31.0009L64.8216 30.86V30.559H64.3216ZM63.5906 30.946L63.1959 31.253L63.4536 31.5843L63.8246 31.3879L63.5906 30.946ZM63.6432 30.2054C63.3901 29.9524 63.0946 29.7663 62.7597 29.6547L62.4435 30.6033C62.6246 30.6637 62.7878 30.7643 62.9361 30.9126L63.6432 30.2054ZM62.7772 29.6608C62.4673 29.5446 62.0836 29.5 61.6556 29.5V30.5C62.0303 30.5 62.2773 30.5414 62.4261 30.5972L62.7772 29.6608ZM61.6556 29.5H45.2296V30.5H61.6556V29.5ZM45.6971 29.8227L45.2241 28.5757L44.2891 28.9303L44.7621 30.1773L45.6971 29.8227ZM44.8779 29.2381L45.7379 29.0231L45.4954 28.0529L44.6354 28.2679L44.8779 29.2381ZM45.7616 29.0165C46.7345 28.7217 47.4974 28.3238 47.9118 27.7587L47.1054 27.1673C46.8892 27.4622 46.3908 27.781 45.4716 28.0595L45.7616 29.0165ZM47.9206 27.7463C48.3274 27.1546 48.4816 26.2328 48.4816 25.098H47.4816C47.4816 26.1992 47.3205 26.854 47.0966 27.1797L47.9206 27.7463ZM48.4816 25.098V9.833H47.4816V25.098H48.4816ZM48.4816 9.833C48.4816 8.26303 48.3514 6.96662 48.077 5.96044L47.1122 6.22356C47.3538 7.10938 47.4816 8.30697 47.4816 9.833H48.4816ZM48.077 5.96044C47.8015 4.95036 47.3285 3.99237 46.6648 3.08732L45.8584 3.67868C46.456 4.49363 46.8717 5.34163 47.1122 6.22356L48.077 5.96044ZM46.6701 3.09466L46.1541 2.36366L45.3371 2.94034L45.8531 3.67134L46.6701 3.09466ZM46.1252 2.97739L46.6412 2.37539L45.882 1.7246L45.366 2.3266L46.1252 2.97739ZM46.2616 2.55H58.1726V1.55H46.2616V2.55ZM58.1726 2.55C59.3215 2.55 60.2867 2.48119 61.0592 2.33729C61.8201 2.19555 62.45 1.97126 62.8771 1.61848L62.2402 0.847518C62.0079 1.0394 61.5771 1.22361 60.8761 1.3542C60.1865 1.48264 59.2884 1.55 58.1726 1.55V2.55ZM62.836 1.64902L63.61 1.13302L63.0553 0.300973L62.2813 0.816974L62.836 1.64902ZM62.9935 1.0844L63.5525 1.6004L64.2308 0.865598L63.6718 0.349597L62.9935 1.0844ZM63.3916 1.233V8.156H64.3916V1.233H63.3916ZM63.7244 7.68479L62.3914 8.15779L62.7258 9.10021L64.0588 8.62721L63.7244 7.68479ZM63.0462 8.51819L62.8312 7.57219L61.8561 7.79381L62.0711 8.73981L63.0462 8.51819ZM62.8293 7.56406C62.4816 6.1443 62.0076 5.07386 61.3327 4.50554L60.6886 5.27045C61.103 5.61947 61.5177 6.41236 61.858 7.80193L62.8293 7.56406ZM61.3327 4.50554C60.6465 3.92768 59.5462 3.7 58.1726 3.7V4.7C59.4937 4.7 60.2854 4.93098 60.6886 5.27045L61.3327 4.50554ZM58.1726 3.7H54.3456V4.7H58.1726V3.7ZM54.3456 3.7C53.3158 3.7 52.441 3.89795 51.945 4.4766L52.7042 5.12739C52.8963 4.90338 53.3687 4.7 54.3456 4.7V3.7ZM51.9315 4.49309C51.7041 4.78241 51.5651 5.17148 51.4792 5.60863C51.392 6.05274 51.3516 6.58927 51.3516 7.21H52.3516C52.3516 6.62673 52.3901 6.15992 52.4605 5.80137C52.5323 5.43585 52.6298 5.22292 52.7178 5.11091L51.9315 4.49309ZM51.3516 7.21V14.692H52.3516V7.21H51.3516ZM51.8516 15.192H56.7966V14.192H51.8516V15.192ZM56.7966 15.192C57.5204 15.192 58.1686 15.0503 58.7188 14.7408L58.2285 13.8692C57.8613 14.0757 57.3915 14.192 56.7966 14.192V15.192ZM58.7188 14.7408C59.2636 14.4343 59.7864 13.9139 60.2947 13.2262L59.4905 12.6318C59.0242 13.2628 58.6009 13.6597 58.2285 13.8692L58.7188 14.7408ZM60.3022 13.2157L60.6032 12.7857L59.784 12.2123L59.483 12.6423L60.3022 13.2157ZM59.9508 12.9361L60.7248 13.3661L61.2104 12.4919L60.4364 12.0619L59.9508 12.9361ZM60.4676 12.929V19.594H61.4676V12.929H60.4676ZM60.7955 19.1246L59.5055 19.5976L59.8497 20.5364L61.1397 20.0634L60.7955 19.1246ZM60.1614 19.9408L59.9034 18.9518L58.9358 19.2042L59.1938 20.1932L60.1614 19.9408ZM59.8955 18.9245C59.5865 17.9666 59.0923 17.2373 58.3532 16.8678L57.906 17.7622C58.3136 17.966 58.6794 18.4121 58.9438 19.2315L59.8955 18.9245ZM58.3532 16.8678C57.6659 16.5241 56.5573 16.385 55.1196 16.385V17.385C56.5486 17.385 57.4466 17.5325 57.906 17.7622L58.3532 16.8678ZM55.1196 16.385H51.8516V17.385H55.1196V16.385ZM51.3516 16.885V24.84H52.3516V16.885H51.3516ZM51.3516 24.84C51.3516 25.6842 51.4088 26.367 51.5405 26.8608L52.5067 26.6032C52.4091 26.237 52.3516 25.6585 52.3516 24.84H51.3516ZM51.5528 26.9002C51.736 27.4132 52.069 27.805 52.5623 28.0105L52.9469 27.0875C52.7522 27.0063 52.5979 26.8535 52.4945 26.5638L51.5528 26.9002ZM52.5623 28.0105C53.0006 28.1931 53.6126 28.264 54.3456 28.264V27.264C53.6454 27.264 53.1967 27.1915 52.9469 27.0875L52.5623 28.0105ZM54.3456 28.264H58.5166V27.264H54.3456V28.264ZM58.5166 28.264C59.4828 28.264 60.2765 28.1774 60.8677 27.9803L60.5515 27.0317C60.1107 27.1786 59.4424 27.264 58.5166 27.264V28.264ZM60.8908 27.972C61.514 27.7297 62.0022 27.3095 62.3446 26.7275L61.4827 26.2205C61.2517 26.6132 60.9372 26.881 60.5284 27.04L60.8908 27.972ZM62.3334 26.7456C62.6894 26.1955 62.9924 25.422 63.256 24.4556L62.2912 24.1924C62.0388 25.118 61.7685 25.7779 61.4938 26.2024L62.3334 26.7456ZM63.2525 24.4677L63.5105 23.6077L62.5527 23.3203L62.2947 24.1803L63.2525 24.4677ZM62.8879 23.9429L64.1779 24.3299L64.4653 23.3721L63.1753 22.9851L62.8879 23.9429ZM63.8216 23.851V30.559H64.8216V23.851H63.8216ZM64.0877 30.1171L63.3567 30.5041L63.8246 31.3879L64.5556 31.0009L64.0877 30.1171ZM63.9853 30.639L63.6843 30.252L62.8949 30.866L63.1959 31.253L63.9853 30.639ZM73.0412 29.828L72.8743 30.2993L72.8743 30.2993L73.0412 29.828ZM69.6872 27.678L69.3116 28.0081L69.3172 28.0143L69.6872 27.678ZM69.5582 21.314L69.9118 21.6676L69.9184 21.6608L69.5582 21.314ZM72.9982 20.239L72.7209 20.655L72.7929 20.7031L72.8769 20.7241L72.9982 20.239ZM72.7402 21.615L73.1875 21.8386L73.1916 21.83L72.7402 21.615ZM73.5572 27.205L73.2164 27.571L73.2234 27.5773L73.5572 27.205ZM81.8132 26.818L82.1568 27.1812L82.1571 27.181L81.8132 26.818ZM81.8992 17.96L81.5151 18.2801L81.5196 18.2854L81.8992 17.96ZM75.8792 16.283L75.9499 16.778L75.9637 16.776L75.9773 16.7733L75.8792 16.283ZM74.6752 16.154L75.104 15.8968L75.104 15.8968L74.6752 16.154ZM75.0192 14.778L75.2586 15.2169L75.2586 15.2169L75.0192 14.778ZM76.7822 14.262L76.6868 13.7712L76.6842 13.7717L76.7822 14.262ZM80.9532 12.284L80.5651 11.9686L80.5592 11.9762L80.9532 12.284ZM80.8242 4.974L80.4647 5.32151L80.4647 5.32151L80.8242 4.974ZM73.3852 4.759L73.089 4.35613L73.0833 4.36045L73.3852 4.759ZM71.2352 8.887L70.749 8.77057L70.7468 8.77972L70.7449 8.78894L71.2352 8.887ZM71.0632 9.747L70.9097 10.2229L71.4435 10.395L71.5535 9.84506L71.0632 9.747ZM69.7302 9.317H69.2302V9.68108L69.5767 9.79285L69.7302 9.317ZM69.7302 1.577L69.4345 1.1738L69.2302 1.32363V1.577H69.7302ZM70.3752 1.104L70.6585 0.691977L70.3659 0.490811L70.0795 0.700796L70.3752 1.104ZM71.0632 1.577L71.4011 1.20842L71.3753 1.18479L71.3465 1.16498L71.0632 1.577ZM74.2452 1.835L74.1472 1.34471L74.1472 1.34471L74.2452 1.835ZM75.5352 1.663L75.5948 2.15944L75.6045 2.15827L75.6142 2.15672L75.5352 1.663ZM83.9202 3.297L83.6202 3.69702L83.6248 3.70043L83.9202 3.297ZM80.7382 14.907L80.5747 14.4345L78.8944 15.0161L80.6315 15.3955L80.7382 14.907ZM86.0702 17.659L85.684 17.9766L85.684 17.9766L86.0702 17.659ZM86.4142 26.861L86.819 27.1545L86.8224 27.1497L86.4142 26.861ZM82.8452 29.57L83.0411 30.03L83.0411 30.03L82.8452 29.57ZM77.5132 30.059C75.9591 30.059 74.5255 29.8232 73.2081 29.3567L72.8743 30.2993C74.309 30.8074 75.8567 31.059 77.5132 31.059V30.059ZM73.2081 29.3567C71.8988 28.893 70.8542 28.2184 70.0572 27.3417L69.3172 28.0143C70.2402 29.0296 71.4316 29.7884 72.8743 30.2993L73.2081 29.3567ZM70.0628 27.3479C69.3175 26.4999 68.9402 25.4731 68.9402 24.238H67.9402C67.9402 25.6976 68.3942 26.9641 69.3116 28.0081L70.0628 27.3479ZM68.9402 24.238C68.9402 23.1461 69.2738 22.3056 69.9118 21.6676L69.2047 20.9604C68.352 21.8131 67.9402 22.9219 67.9402 24.238H68.9402ZM69.9184 21.6608C70.5626 20.9918 71.3753 20.653 72.3962 20.653V19.653C71.1238 19.653 70.0445 20.0882 69.1981 20.9672L69.9184 21.6608ZM72.3962 20.653C72.5417 20.653 72.6447 20.6598 72.7125 20.6695C72.746 20.6743 72.7633 20.6787 72.7685 20.6803C72.7762 20.6826 72.7545 20.6774 72.7209 20.655L73.2756 19.823C73.1354 19.7296 72.9704 19.6962 72.8539 19.6795C72.7211 19.6605 72.5661 19.653 72.3962 19.653V20.653ZM72.8769 20.7241C72.8368 20.714 72.7929 20.6937 72.7534 20.6607C72.7147 20.6285 72.6921 20.5942 72.68 20.5701C72.6598 20.5297 72.6702 20.5208 72.6702 20.583H73.6702C73.6702 20.4445 73.652 20.278 73.5744 20.1229C73.4867 19.9475 73.3314 19.8069 73.1195 19.7539L72.8769 20.7241ZM72.6702 20.583C72.6702 20.5126 72.689 20.4779 72.669 20.5378C72.6566 20.575 72.6349 20.6323 72.6012 20.7132C72.5342 20.8738 72.4309 21.1017 72.2888 21.4L73.1916 21.83C73.3362 21.5263 73.4479 21.2812 73.5243 21.0978C73.5622 21.0067 73.5943 20.9242 73.6177 20.854C73.6336 20.8064 73.6702 20.6964 73.6702 20.583H72.6702ZM72.293 21.3914C71.9591 22.0593 71.8102 22.9044 71.8102 23.894H72.8102C72.8102 22.9916 72.948 22.3174 73.1874 21.8386L72.293 21.3914ZM71.8102 23.894C71.8102 25.4274 72.2583 26.6789 73.2165 27.5709L73.8979 26.8391C73.1934 26.1831 72.8102 25.2272 72.8102 23.894H71.8102ZM73.2234 27.5773C74.185 28.4394 75.6051 28.823 77.3842 28.823V27.823C75.7233 27.823 74.5921 27.4613 73.891 26.8327L73.2234 27.5773ZM77.3842 28.823C79.3649 28.823 80.9783 28.296 82.1568 27.1812L81.4696 26.4548C80.5268 27.3466 79.1875 27.823 77.3842 27.823V28.823ZM82.1571 27.181C83.366 26.0357 83.9472 24.4742 83.9472 22.561H82.9472C82.9472 24.2598 82.4391 25.5363 81.4693 26.455L82.1571 27.181ZM83.9472 22.561C83.9472 20.6003 83.4017 18.9446 82.2788 17.6346L81.5196 18.2854C82.4607 19.3834 82.9472 20.795 82.9472 22.561H83.9472ZM82.2833 17.6399C81.1569 16.2882 79.4603 15.654 77.2982 15.654V16.654C79.2641 16.654 80.6348 17.2238 81.5151 18.2801L82.2833 17.6399ZM77.2982 15.654C76.7549 15.654 76.2485 15.6992 75.7812 15.7927L75.9773 16.7733C76.3699 16.6948 76.8095 16.654 77.2982 16.654V15.654ZM75.8085 15.788C75.412 15.8447 75.1399 15.869 74.9762 15.869V16.869C75.2139 16.869 75.5437 16.836 75.9499 16.778L75.8085 15.788ZM74.9762 15.869C75.0006 15.869 75.0263 15.873 75.051 15.8812C75.0754 15.8893 75.0937 15.8999 75.1056 15.9084C75.1273 15.9239 75.1235 15.9293 75.104 15.8968L74.2465 16.4112C74.3777 16.6299 74.613 16.869 74.9762 16.869V15.869ZM75.104 15.8968C75.0788 15.8549 75.0462 15.7661 75.0462 15.595H74.0462C74.0462 15.8826 74.0996 16.1665 74.2465 16.4112L75.104 15.8968ZM75.0462 15.595C75.0462 15.4803 75.0699 15.4088 75.0972 15.3618C75.1239 15.3157 75.1698 15.2654 75.2586 15.2169L74.7798 14.3391C74.5533 14.4626 74.3627 14.6345 74.2318 14.8607C74.1013 15.086 74.0462 15.337 74.0462 15.595H75.0462ZM75.2586 15.2169C75.4999 15.0853 76.0189 14.9246 76.8803 14.7523L76.6842 13.7717C75.8256 13.9434 75.1692 14.1267 74.7798 14.3391L75.2586 15.2169ZM76.8777 14.7528C78.9747 14.3451 80.5163 13.6555 81.3472 12.5918L80.5592 11.9762C79.9568 12.7472 78.7178 13.3763 76.6868 13.7712L76.8777 14.7528ZM81.3413 12.5993C82.18 11.567 82.5712 10.196 82.5712 8.543H81.5712C81.5712 10.0433 81.2171 11.1664 80.5652 11.9687L81.3413 12.5993ZM82.5712 8.543C82.5712 6.93061 82.1278 5.6031 81.1837 4.62649L80.4647 5.32151C81.1833 6.0649 81.5712 7.11672 81.5712 8.543H82.5712ZM81.1837 4.62649C80.2438 3.65413 79.0025 3.184 77.5132 3.184V4.184C78.7759 4.184 79.742 4.57386 80.4647 5.32151L81.1837 4.62649ZM77.5132 3.184C75.6771 3.184 74.1814 3.55297 73.089 4.35617L73.6814 5.16182C74.5384 4.53169 75.7947 4.184 77.5132 4.184V3.184ZM73.0833 4.36045C71.9972 5.18327 71.2448 6.6998 70.749 8.77057L71.7215 9.00343C72.2003 7.00353 72.8813 5.76806 73.6871 5.15755L73.0833 4.36045ZM70.7449 8.78894L70.5729 9.64894L71.5535 9.84506L71.7255 8.98506L70.7449 8.78894ZM71.2167 9.27115L69.8837 8.84114L69.5767 9.79285L70.9097 10.2229L71.2167 9.27115ZM70.2302 9.317V1.577H69.2302V9.317H70.2302ZM70.0259 1.9802L70.6709 1.5072L70.0795 0.700796L69.4345 1.1738L70.0259 1.9802ZM70.0919 1.51602L70.7799 1.98902L71.3465 1.16498L70.6585 0.691977L70.0919 1.51602ZM70.7254 1.94558C71.1899 2.3714 71.8141 2.55 72.5252 2.55V1.55C71.975 1.55 71.6245 1.41326 71.4011 1.20842L70.7254 1.94558ZM72.5252 2.55C73.0031 2.55 73.6134 2.47127 74.3433 2.32529L74.1472 1.34471C73.4437 1.48539 72.9073 1.55 72.5252 1.55V2.55ZM74.3433 2.32529C74.4626 2.30143 74.8682 2.24663 75.5948 2.15944L75.4756 1.16656C74.7689 1.25137 74.3145 1.31123 74.1472 1.34471L74.3433 2.32529ZM75.6142 2.15672C76.2983 2.04727 77.1022 1.991 78.0292 1.991V0.990998C77.0642 0.990998 76.2055 1.0494 75.4562 1.16928L75.6142 2.15672ZM78.0292 1.991C80.2607 1.991 82.1146 2.56777 83.6202 3.697L84.2202 2.897C82.5152 1.61822 80.4417 0.990998 78.0292 0.990998V1.991ZM83.6248 3.70043C85.088 4.77167 85.8282 6.29116 85.8282 8.328H86.8282C86.8282 6.00751 85.9631 4.173 84.2156 2.89357L83.6248 3.70043ZM85.8282 8.328C85.8282 9.7671 85.3985 10.972 84.5497 11.971C83.6935 12.9787 82.3835 13.8084 80.5747 14.4345L80.9018 15.3795C82.8196 14.7156 84.3046 13.8038 85.3117 12.6185C86.3263 11.4245 86.8282 9.9849 86.8282 8.328H85.8282ZM80.6315 15.3955C83.0708 15.9282 84.7237 16.8086 85.684 17.9766L86.4564 17.3414C85.2954 15.9294 83.3936 14.9751 80.8449 14.4185L80.6315 15.3955ZM85.684 17.9766C86.6521 19.154 87.1612 20.751 87.1612 22.819H88.1612C88.1612 20.587 87.6096 18.744 86.4564 17.3414L85.684 17.9766ZM87.1612 22.819C87.1612 24.241 86.7742 25.4862 86.006 26.5723L86.8224 27.1497C87.7169 25.8851 88.1612 24.4357 88.1612 22.819H87.1612ZM86.0094 26.5675C85.2406 27.628 84.1297 28.4795 82.6493 29.11L83.0411 30.03C84.6568 29.3419 85.9252 28.3873 86.819 27.1545L86.0094 26.5675ZM82.6493 29.11C81.174 29.7384 79.4653 30.059 77.5132 30.059V31.059C79.5745 31.059 81.4205 30.7203 83.0411 30.03L82.6493 29.11ZM90.986 28.667L90.8752 28.1794L90.3267 28.3041L90.5148 28.8342L90.986 28.667ZM91.932 28.452L92.0428 28.9396L92.0514 28.9376L92.0599 28.9354L91.932 28.452ZM93.867 27.377L93.4585 27.0886L93.455 27.0937L93.867 27.377ZM93.867 4.716L93.4403 4.97672L93.449 4.99083L93.4585 5.00434L93.867 4.716ZM91.932 3.598L92.0465 3.11128L92.0428 3.11043L91.932 3.598ZM90.986 3.383L90.5148 3.21579L90.3267 3.74591L90.8752 3.87057L90.986 3.383ZM91.459 2.05V1.55H91.1059L90.9878 1.88279L91.459 2.05ZM100.016 2.05L100.396 1.7246L100.246 1.55H100.016V2.05ZM100.532 2.652L100.94 2.94034L101.165 2.62224L100.912 2.3266L100.532 2.652ZM100.016 3.383L100.424 3.67237L100.424 3.67134L100.016 3.383ZM98.64 6.135L98.1613 5.98994L98.1576 6.00344L98.64 6.135ZM99.543 27.033L99.2387 27.4299L99.2473 27.4362L99.543 27.033ZM106.423 26.216L106.038 25.8968L106.033 25.9025L106.423 26.216ZM107.111 18.648L106.667 18.877L106.671 18.8851L106.675 18.8931L107.111 18.648ZM105.047 16.412L104.779 16.8345L104.786 16.8383L105.047 16.412ZM100.489 15.767L100.368 15.2819L100.368 15.2819L100.489 15.767ZM100.188 14.004L100.041 13.5261L100.036 13.5278L100.188 14.004ZM107.541 14.778L107.299 15.2155L107.303 15.2176L107.541 14.778ZM110.723 17.788L110.292 18.0425L110.3 18.0539L110.723 17.788ZM109.562 27.807L109.905 28.1705L109.562 27.807ZM91.459 30L90.9878 30.1672L91.1059 30.5H91.459V30ZM113.69 28.667L113.574 28.1806L113.048 28.3058L113.214 28.8205L113.69 28.667ZM114.593 28.452L114.709 28.9384L114.726 28.9343L114.743 28.929L114.593 28.452ZM116.614 27.291L117.014 27.591L117.014 27.591L116.614 27.291ZM116.571 4.716L116.163 5.00434L116.168 5.01214L116.174 5.01973L116.571 4.716ZM114.593 3.598L114.721 3.1145L114.709 3.1116L114.593 3.598ZM113.69 3.383L113.214 3.2295L113.048 3.74415L113.574 3.8694L113.69 3.383ZM114.12 2.05V1.55H113.756L113.644 1.8965L114.12 2.05ZM122.72 2.05L123.113 1.74109L122.963 1.55H122.72V2.05ZM123.193 2.652L123.613 2.92362L123.807 2.62385L123.586 2.34309L123.193 2.652ZM122.72 3.383L123.117 3.68722L123.129 3.67138L123.14 3.65462L122.72 3.383ZM121.301 6.135L120.821 5.99389L120.819 6.00344L121.301 6.135ZM121.387 27.463L120.975 27.7463L120.979 27.7525L120.984 27.7587L121.387 27.463ZM123.279 28.538L123.134 29.0165L123.146 29.0201L123.158 29.0231L123.279 28.538ZM124.139 28.753L124.612 28.916L124.79 28.4002L124.26 28.2679L124.139 28.753ZM123.709 30V30.5H124.065L124.182 30.163L123.709 30ZM114.12 30L113.644 30.1535L113.756 30.5H114.12V30ZM91.0968 29.1546L92.0428 28.9396L91.8212 27.9644L90.8752 28.1794L91.0968 29.1546ZM92.0599 28.9354C93.0666 28.6689 93.8593 28.2708 94.279 27.6603L93.455 27.0937C93.244 27.4006 92.7467 27.7191 91.804 27.9686L92.0599 28.9354ZM94.2755 27.6653C94.7147 27.043 94.883 26.0603 94.883 24.84H93.883C93.883 26.0277 93.7072 26.7363 93.4585 27.0887L94.2755 27.6653ZM94.883 24.84V7.21H93.883V24.84H94.883ZM94.883 7.21C94.883 6.01529 94.7138 5.04868 94.2755 4.42766L93.4585 5.00434C93.7081 5.35799 93.883 6.05404 93.883 7.21H94.883ZM94.2936 4.45528C93.8747 3.76983 93.0702 3.35216 92.0465 3.11129L91.8175 4.08471C92.7431 4.3025 93.2286 4.63017 93.4403 4.97672L94.2936 4.45528ZM92.0428 3.11043L91.0968 2.89543L90.8752 3.87057L91.8212 4.08557L92.0428 3.11043ZM91.4572 3.5502L91.9302 2.2172L90.9878 1.88279L90.5148 3.21579L91.4572 3.5502ZM91.459 2.55H100.016V1.55H91.459V2.55ZM99.6364 2.37539L100.152 2.97739L100.912 2.3266L100.396 1.7246L99.6364 2.37539ZM100.124 2.36366L99.6075 3.09466L100.424 3.67134L100.94 2.94034L100.124 2.36366ZM99.6082 3.09363C98.9495 4.02181 98.4653 4.98737 98.1615 5.99L99.1185 6.28C99.388 5.39063 99.8211 4.52153 100.424 3.67237L99.6082 3.09363ZM98.1576 6.00344C97.8834 7.00902 97.753 8.29072 97.753 9.833H98.753C98.753 8.33661 98.8806 7.15298 99.1224 6.26656L98.1576 6.00344ZM97.753 9.833V22.862H98.753V9.833H97.753ZM97.753 22.862C97.753 25.0027 98.1773 26.616 99.2388 27.4298L99.8472 26.6362C99.1887 26.1314 98.753 24.9639 98.753 22.862H97.753ZM99.2473 27.4362C100.202 28.1362 101.326 28.479 102.596 28.479V27.479C101.516 27.479 100.604 27.1911 99.8387 26.6298L99.2473 27.4362ZM102.596 28.479C104.342 28.479 105.765 27.8312 106.812 26.5295L106.033 25.9025C105.189 26.9515 104.061 27.479 102.596 27.479V28.479ZM106.808 26.5352C107.872 25.2516 108.385 23.6113 108.385 21.658H107.385C107.385 23.4314 106.923 24.8298 106.038 25.8968L106.808 26.5352ZM108.385 21.658C108.385 20.4859 108.106 19.3977 107.547 18.4029L106.675 18.8931C107.148 19.7329 107.385 20.6514 107.385 21.658H108.385ZM107.555 18.419C107.027 17.3935 106.277 16.5792 105.308 15.9857L104.786 16.8383C105.595 17.3341 106.22 18.0105 106.667 18.877L107.555 18.419ZM105.315 15.9896C104.373 15.3935 103.334 15.095 102.209 15.095V16.095C103.148 16.095 104.001 16.3412 104.779 16.8344L105.315 15.9896ZM102.209 15.095C101.497 15.095 100.88 15.154 100.368 15.2819L100.61 16.2521C101.016 16.1507 101.545 16.095 102.209 16.095V15.095ZM100.368 15.2819C100.142 15.3384 99.9642 15.3792 99.8319 15.4057C99.7658 15.4189 99.7145 15.4278 99.6765 15.4333C99.6349 15.4392 99.6226 15.439 99.629 15.439V16.439C99.7419 16.439 99.887 16.4145 100.028 16.3863C100.182 16.3554 100.377 16.3103 100.61 16.2521L100.368 15.2819ZM99.629 15.439C99.6279 15.439 99.6342 15.4389 99.6454 15.4421C99.657 15.4454 99.6694 15.451 99.6806 15.4585C99.704 15.4741 99.7025 15.4841 99.6892 15.4574L98.7948 15.9046C98.8674 16.0499 98.9735 16.1889 99.1259 16.2905C99.2814 16.3942 99.4555 16.439 99.629 16.439V15.439ZM99.6892 15.4574C99.6477 15.3744 99.613 15.2417 99.613 15.036H98.613C98.613 15.3463 98.6643 15.6436 98.7948 15.9046L99.6892 15.4574ZM99.613 15.036C99.613 14.9214 99.6772 14.6924 100.34 14.4802L100.036 13.5278C99.2654 13.7742 98.613 14.2333 98.613 15.036H99.613ZM100.335 14.4819C101.019 14.2714 101.87 14.16 102.897 14.16V13.16C101.803 13.16 100.848 13.2779 100.041 13.5261L100.335 14.4819ZM102.897 14.16C104.573 14.16 106.035 14.5165 107.299 15.2155L107.783 14.3405C106.352 13.5489 104.719 13.16 102.897 13.16V14.16ZM107.303 15.2176C108.605 15.9229 109.596 16.8644 110.293 18.0424L111.153 17.5336C110.359 16.1889 109.229 15.1238 107.779 14.3384L107.303 15.2176ZM110.3 18.0539C111.023 19.2065 111.384 20.4616 111.384 21.83H112.384C112.384 20.2744 111.971 18.8348 111.146 17.5221L110.3 18.0539ZM111.384 21.83C111.384 24.2427 110.648 26.0933 109.219 27.4435L109.905 28.1705C111.572 26.5967 112.384 24.4627 112.384 21.83H111.384ZM109.219 27.4435C107.802 28.781 105.545 29.5 102.338 29.5V30.5C105.667 30.5 108.225 29.757 109.905 28.1705L109.219 27.4435ZM102.338 29.5H91.459V30.5H102.338V29.5ZM91.9302 29.8328L91.4572 28.4998L90.5148 28.8342L90.9878 30.1672L91.9302 29.8328ZM113.806 29.1534L114.709 28.9384L114.477 27.9656L113.574 28.1806L113.806 29.1534ZM114.743 28.929C115.774 28.605 116.573 28.1785 117.014 27.591L116.214 26.991C115.967 27.3209 115.419 27.6683 114.443 27.975L114.743 28.929ZM117.014 27.591C117.463 26.9927 117.63 26.0297 117.63 24.84H116.63C116.63 26.001 116.453 26.672 116.214 26.991L117.014 27.591ZM117.63 24.84V7.21H116.63V24.84H117.63ZM117.63 7.21C117.63 6.01095 117.446 5.03667 116.968 4.41227L116.174 5.01973C116.442 5.36999 116.63 6.05838 116.63 7.21H117.63ZM116.979 4.42766C116.535 3.79747 115.737 3.38368 114.721 3.11465L114.465 4.08135C115.398 4.32832 115.919 4.65986 116.163 5.00434L116.979 4.42766ZM114.709 3.1116L113.806 2.8966L113.574 3.8694L114.477 4.0844L114.709 3.1116ZM114.166 3.5365L114.596 2.2035L113.644 1.8965L113.214 3.2295L114.166 3.5365ZM114.12 2.55H122.72V1.55H114.12V2.55ZM122.327 2.35891L122.8 2.96091L123.586 2.34309L123.113 1.74109L122.327 2.35891ZM122.773 2.38037L122.3 3.11137L123.14 3.65462L123.613 2.92362L122.773 2.38037ZM122.323 3.07878C121.629 3.98432 121.126 4.95639 120.821 5.99392L121.781 6.27608C122.049 5.36427 122.492 4.50168 123.117 3.68722L122.323 3.07878ZM120.819 6.00344C120.544 7.00902 120.414 8.29072 120.414 9.833H121.414C121.414 8.33661 121.542 7.15298 121.783 6.26656L120.819 6.00344ZM120.414 9.833V25.098H121.414V9.833H120.414ZM120.414 25.098C120.414 26.2328 120.568 27.1546 120.975 27.7463L121.799 27.1797C121.575 26.854 121.414 26.1992 121.414 25.098H120.414ZM120.984 27.7587C121.398 28.3238 122.161 28.7217 123.134 29.0165L123.424 28.0595C122.505 27.781 122.006 27.4622 121.79 27.1673L120.984 27.7587ZM123.158 29.0231L124.018 29.2381L124.26 28.2679L123.4 28.0529L123.158 29.0231ZM123.666 28.59L123.236 29.837L124.182 30.163L124.612 28.916L123.666 28.59ZM123.709 29.5H114.12V30.5H123.709V29.5ZM114.596 29.8465L114.166 28.5135L113.214 28.8205L113.644 30.1535L114.596 29.8465Z" fill="#002755" mask="url(#path-1-outside-1_126_350)"/>
</svg>
