<svg width="21" height="15" viewBox="0 0 21 15" fill="none" xmlns="http://www.w3.org/2000/svg">
<path d="M17.2566 11.7325L17.5214 12.5183L15.7205 12.527L18.0677 7.36814L18.418 0.935182C23.5423 5.19134 18.3955 9.19768 16.7445 11.3539L17.2566 11.7325Z" fill="#932909"/>
<path d="M10.994 13.086C7.73232 10.2225 3.3768 10.7679 0.739618 9.40973C0.436487 7.22267 1.95132 3.89229 2.78484 2.65373C8.30965 5.425 11.3023 7.06065 13.3521 6.94627C14.7675 6.60632 18.2082 4.34225 18.3888 0.926854C21.0365 2.93467 20.1257 6.03415 19.3393 7.33292L16.3278 11.4282C16.1415 11.669 16.1457 11.6381 16.2496 11.7229L17.5214 12.5183L16.8615 15.0051L13.2408 14.0443C14.0197 14.251 11.5851 13.6049 10.994 13.086Z" fill="#CE3C0F"/>
</svg>
