<svg width="125" height="31" viewBox="0 0 125 31" fill="none" xmlns="http://www.w3.org/2000/svg">
<path d="M0.832793 29.355L1.34879 28.667C2.00813 27.807 2.46679 26.904 2.72479 25.958C3.01146 25.012 3.15479 23.7507 3.15479 22.174V9.833C3.15479 8.31367 3.01146 7.081 2.72479 6.135C2.46679 5.16033 2.00813 4.243 1.34879 3.383L0.832793 2.652L1.34879 2.05H12.8298C14.0051 2.05 14.9368 1.99267 15.6248 1.878C16.3128 1.73466 16.8575 1.51967 17.2588 1.233L17.9468 0.716998L18.5918 1.233V8.156L17.2588 8.629L17.0438 7.683C16.8145 6.70833 16.5421 5.99167 16.2268 5.533C15.9401 5.04567 15.5245 4.70167 14.9798 4.501C14.4638 4.30033 13.7328 4.2 12.7868 4.2H9.43279C8.42946 4.2 7.77013 4.40067 7.45479 4.802C7.13946 5.20333 6.98179 6.006 6.98179 7.21V24.84C6.98179 26.044 7.13946 26.8753 7.45479 27.334C7.77013 27.764 8.42946 28.1367 9.43279 28.452L10.3788 28.667L9.90579 30H1.34879L0.832793 29.355ZM21.4049 28.667L22.3509 28.452C23.3256 28.194 23.9706 27.8357 24.2859 27.377C24.6299 26.8897 24.8019 26.044 24.8019 24.84V5.576C24.8019 5.232 24.7303 5.00266 24.5869 4.888C24.4436 4.74466 24.2286 4.673 23.9419 4.673H21.7059L21.2329 3.211C22.3509 2.781 23.8273 2.394 25.6619 2.05C27.4966 1.67733 29.2596 1.491 30.9509 1.491C34.7636 1.491 37.6016 2.351 39.4649 4.071C41.3283 5.791 42.2599 8.01267 42.2599 10.736C42.2599 12.4273 41.9159 13.961 41.2279 15.337C40.5686 16.713 39.5366 17.8167 38.1319 18.648C36.7559 19.4507 35.0359 19.852 32.9719 19.852C32.0546 19.852 31.2519 19.7373 30.5639 19.508C29.8759 19.25 29.5319 18.906 29.5319 18.476C29.5319 18.218 29.5749 18.003 29.6609 17.831C29.7756 17.6303 29.9333 17.53 30.1339 17.53C30.2199 17.53 30.4349 17.5873 30.7789 17.702C31.1229 17.788 31.5386 17.831 32.0259 17.831C33.9753 17.831 35.4946 17.2003 36.5839 15.939C37.7019 14.6777 38.2609 13.0007 38.2609 10.908C38.2609 8.78667 37.6733 7.05233 36.4979 5.705C35.3513 4.329 33.7173 3.641 31.5959 3.641C29.6466 3.641 28.6719 4.25733 28.6719 5.49V22.174C28.6719 23.7793 28.8009 25.055 29.0589 26.001C29.3169 26.9183 29.7756 27.807 30.4349 28.667L30.9509 29.355L30.4349 30H21.8779L21.4049 28.667ZM63.2896 30.559C63.089 30.3583 62.8596 30.215 62.6016 30.129C62.3723 30.043 62.057 30 61.6556 30H45.2296L44.7566 28.753L45.6166 28.538C46.5626 28.2513 47.1933 27.893 47.5086 27.463C47.824 27.0043 47.9816 26.216 47.9816 25.098V9.833C47.9816 8.285 47.8526 7.038 47.5946 6.092C47.3366 5.146 46.8923 4.243 46.2616 3.383L45.7456 2.652L46.2616 2.05H58.1726C60.4373 2.05 61.8993 1.77767 62.5586 1.233L63.3326 0.716998L63.8916 1.233V8.156L62.5586 8.629L62.3436 7.683C61.9996 6.27833 61.5553 5.34667 61.0106 4.888C60.466 4.42933 59.52 4.2 58.1726 4.2H54.3456C53.3423 4.2 52.6686 4.40067 52.3246 4.802C52.0093 5.20333 51.8516 6.006 51.8516 7.21V14.692H56.7966C57.456 14.692 58.015 14.563 58.4736 14.305C58.9323 14.047 59.4053 13.5883 59.8926 12.929L60.1936 12.499L60.9676 12.929V19.594L59.6776 20.067L59.4196 19.078C59.133 18.1893 58.703 17.6017 58.1296 17.315C57.5563 17.0283 56.553 16.885 55.1196 16.885H51.8516V24.84C51.8516 25.6713 51.909 26.302 52.0236 26.732C52.167 27.1333 52.4106 27.4057 52.7546 27.549C53.0986 27.6923 53.629 27.764 54.3456 27.764H58.5166C59.4626 27.764 60.1936 27.678 60.7096 27.506C61.2256 27.3053 61.627 26.9613 61.9136 26.474C62.229 25.9867 62.5156 25.27 62.7736 24.324L63.0316 23.464L64.3216 23.851V30.559L63.5906 30.946L63.2896 30.559ZM77.5132 30.559C75.9079 30.559 74.4172 30.3153 73.0412 29.828C71.6652 29.3407 70.5472 28.624 69.6872 27.678C68.8559 26.732 68.4402 25.5853 68.4402 24.238C68.4402 23.034 68.8129 22.0593 69.5582 21.314C70.3035 20.54 71.2495 20.153 72.3962 20.153C72.7115 20.153 72.9122 20.1817 72.9982 20.239C73.1129 20.2677 73.1702 20.3823 73.1702 20.583C73.1702 20.669 73.0269 21.013 72.7402 21.615C72.4535 22.1883 72.3102 22.948 72.3102 23.894C72.3102 25.3273 72.7259 26.431 73.5572 27.205C74.3885 27.9503 75.6642 28.323 77.3842 28.323C79.2762 28.323 80.7525 27.8213 81.8132 26.818C82.9025 25.786 83.4472 24.367 83.4472 22.561C83.4472 20.6977 82.9312 19.164 81.8992 17.96C80.8959 16.756 79.3622 16.154 77.2982 16.154C76.7822 16.154 76.3092 16.197 75.8792 16.283C75.4779 16.3403 75.1769 16.369 74.9762 16.369C74.8615 16.369 74.7612 16.2973 74.6752 16.154C74.5892 16.0107 74.5462 15.8243 74.5462 15.595C74.5462 15.2223 74.7039 14.95 75.0192 14.778C75.3345 14.606 75.9222 14.434 76.7822 14.262C78.8462 13.8607 80.2365 13.2013 80.9532 12.284C81.6985 11.3667 82.0712 10.1197 82.0712 8.543C82.0712 7.02367 81.6555 5.834 80.8242 4.974C79.9929 4.114 78.8892 3.684 77.5132 3.684C75.7359 3.684 74.3599 4.04233 73.3852 4.759C72.4392 5.47567 71.7225 6.85167 71.2352 8.887L71.0632 9.747L69.7302 9.317V1.577L70.3752 1.104L71.0632 1.577C71.4072 1.89233 71.8945 2.05 72.5252 2.05C72.9552 2.05 73.5285 1.97833 74.2452 1.835C74.3885 1.80633 74.8185 1.749 75.5352 1.663C76.2519 1.54833 77.0832 1.491 78.0292 1.491C80.3512 1.491 82.3149 2.093 83.9202 3.297C85.5255 4.47233 86.3282 6.14933 86.3282 8.328C86.3282 11.424 84.4649 13.617 80.7382 14.907C83.2322 15.4517 85.0095 16.369 86.0702 17.659C87.1309 18.949 87.6612 20.669 87.6612 22.819C87.6612 24.3383 87.2455 25.6857 86.4142 26.861C85.5829 28.0077 84.3932 28.9107 82.8452 29.57C81.2972 30.2293 79.5199 30.559 77.5132 30.559ZM90.986 28.667L91.932 28.452C92.9067 28.194 93.5517 27.8357 93.867 27.377C94.211 26.8897 94.383 26.044 94.383 24.84V7.21C94.383 6.03467 94.211 5.20333 93.867 4.716C93.5517 4.2 92.9067 3.82733 91.932 3.598L90.986 3.383L91.459 2.05H100.016L100.532 2.652L100.016 3.383C99.3853 4.27167 98.9267 5.189 98.64 6.135C98.382 7.081 98.253 8.31367 98.253 9.833V22.862C98.253 24.9833 98.683 26.3737 99.543 27.033C100.403 27.6637 101.421 27.979 102.596 27.979C104.201 27.979 105.477 27.3913 106.423 26.216C107.398 25.0407 107.885 23.5213 107.885 21.658C107.885 20.5687 107.627 19.5653 107.111 18.648C106.624 17.702 105.936 16.9567 105.047 16.412C104.187 15.8673 103.241 15.595 102.209 15.595C101.521 15.595 100.948 15.6523 100.489 15.767C100.03 15.8817 99.7437 15.939 99.629 15.939C99.457 15.939 99.328 15.853 99.242 15.681C99.156 15.509 99.113 15.294 99.113 15.036C99.113 14.5773 99.4713 14.2333 100.188 14.004C100.933 13.7747 101.836 13.66 102.897 13.66C104.646 13.66 106.194 14.0327 107.541 14.778C108.917 15.5233 109.978 16.5267 110.723 17.788C111.497 19.0207 111.884 20.368 111.884 21.83C111.884 24.3527 111.11 26.345 109.562 27.807C108.014 29.269 105.606 30 102.338 30H91.459L90.986 28.667ZM113.69 28.667L114.593 28.452C115.596 28.1367 116.27 27.7497 116.614 27.291C116.958 26.8323 117.13 26.0153 117.13 24.84V7.21C117.13 6.03467 116.944 5.20333 116.571 4.716C116.227 4.22867 115.568 3.856 114.593 3.598L113.69 3.383L114.12 2.05H122.72L123.193 2.652L122.72 3.383C122.061 4.243 121.588 5.16033 121.301 6.135C121.043 7.081 120.914 8.31367 120.914 9.833V25.098C120.914 26.216 121.072 27.0043 121.387 27.463C121.702 27.893 122.333 28.2513 123.279 28.538L124.139 28.753L123.709 30H114.12L113.69 28.667Z" fill="#002755"/>
</svg>
