<svg width="71" height="20" viewBox="0 0 71 20" fill="none" xmlns="http://www.w3.org/2000/svg">
<path d="M0.915859 7.58L1.20086 7.49C1.52086 7.4 1.73086 7.285 1.83086 7.145C1.93086 6.995 1.98086 6.73 1.98086 6.35V2.9C1.98086 2.51 1.93086 2.245 1.83086 2.105C1.73086 1.955 1.52086 1.835 1.20086 1.745L0.915859 1.655L1.06586 1.25H3.79586L3.94586 1.43L3.79586 1.655C3.58586 1.935 3.43586 2.235 3.34586 2.555C3.25586 2.865 3.21086 3.27 3.21086 3.77V6.35C3.21086 6.73 3.26586 6.985 3.37586 7.115C3.48586 7.235 3.70586 7.295 4.03586 7.295H5.32586C5.66586 7.295 5.89586 7.235 6.01586 7.115C6.13586 6.985 6.19586 6.73 6.19586 6.35V2.9C6.19586 2.52 6.14086 2.255 6.03086 2.105C5.92086 1.955 5.70586 1.835 5.38586 1.745L5.10086 1.655L5.25086 1.25H7.93586L8.08586 1.43L7.93586 1.655C7.72586 1.925 7.57586 2.215 7.48586 2.525C7.40586 2.835 7.36586 3.25 7.36586 3.77V6.44C7.36586 6.8 7.41586 7.035 7.51586 7.145C7.61586 7.245 7.82586 7.295 8.14586 7.295H9.52586C9.85586 7.295 10.0709 7.235 10.1709 7.115C10.2809 6.985 10.3359 6.73 10.3359 6.35V2.9C10.3359 2.52 10.2809 2.255 10.1709 2.105C10.0609 1.955 9.84586 1.835 9.52586 1.745L9.24086 1.655L9.37586 1.25H12.1359L12.3009 1.43L12.1359 1.655C11.9259 1.925 11.7759 2.215 11.6859 2.525C11.6059 2.835 11.5659 3.25 11.5659 3.77V6.44C11.5659 6.8 11.6159 7.05 11.7159 7.19C11.8259 7.32 12.0309 7.43 12.3309 7.52L12.5859 7.595L12.4509 8H1.06586L0.915859 7.58ZM17.179 8.195C16.159 8.195 15.349 7.875 14.749 7.235C14.149 6.585 13.849 5.715 13.849 4.625C13.849 3.535 14.149 2.675 14.749 2.045C15.349 1.405 16.159 1.085 17.179 1.085C17.849 1.085 18.434 1.23 18.934 1.52C19.434 1.81 19.819 2.22 20.089 2.75C20.359 3.28 20.494 3.905 20.494 4.625C20.494 5.345 20.354 5.975 20.074 6.515C19.804 7.055 19.419 7.47 18.919 7.76C18.419 8.05 17.839 8.195 17.179 8.195ZM17.149 7.46C17.719 7.46 18.179 7.205 18.529 6.695C18.889 6.175 19.069 5.495 19.069 4.655C19.069 4.225 19.009 3.795 18.889 3.365C18.769 2.925 18.569 2.555 18.289 2.255C18.019 1.945 17.664 1.79 17.224 1.79C16.634 1.79 16.159 2.05 15.799 2.57C15.449 3.09 15.274 3.78 15.274 4.64C15.274 5.5 15.439 6.185 15.769 6.695C16.109 7.205 16.569 7.46 17.149 7.46ZM25.0606 11.795C24.5606 11.795 24.1306 11.7 23.7706 11.51C23.4206 11.33 23.1556 11.09 22.9756 10.79C22.8056 10.49 22.7206 10.175 22.7206 9.845C22.7206 9.385 22.8756 8.995 23.1856 8.675C23.4956 8.355 23.9206 8.195 24.4606 8.195C24.5406 8.195 24.6006 8.205 24.6406 8.225C24.6806 8.255 24.7006 8.29 24.7006 8.33C24.7006 8.37 24.6356 8.455 24.5056 8.585C24.3856 8.725 24.2756 8.89 24.1756 9.08C24.0856 9.27 24.0406 9.51 24.0406 9.8C24.0406 10.16 24.1456 10.46 24.3556 10.7C24.5756 10.95 24.8656 11.075 25.2256 11.075C25.7856 11.075 26.2006 10.84 26.4706 10.37C26.7406 9.91 26.8756 9.29 26.8756 8.51V6.5C26.6556 6.9 26.3356 7.215 25.9156 7.445C25.5056 7.675 25.0456 7.79 24.5356 7.79C23.8956 7.79 23.3956 7.595 23.0356 7.205C22.6856 6.805 22.5106 6.25 22.5106 5.54V2.54C22.5106 2.42 22.4906 2.335 22.4506 2.285C22.4106 2.235 22.3406 2.21 22.2406 2.21H21.6256L21.5206 1.88C21.7506 1.64 22.0306 1.445 22.3606 1.295C22.7006 1.145 23.0106 1.07 23.2906 1.07C23.4206 1.07 23.5256 1.11 23.6056 1.19C23.6956 1.26 23.7406 1.355 23.7406 1.475V5.225C23.7406 5.765 23.8506 6.175 24.0706 6.455C24.2906 6.735 24.6056 6.875 25.0156 6.875C25.6256 6.875 26.1006 6.65 26.4406 6.2C26.7806 5.75 26.9506 5.115 26.9506 4.295C26.9506 3.545 26.9206 2.99 26.8606 2.63C26.8006 2.27 26.6506 1.94 26.4106 1.64L26.2606 1.43L26.4106 1.235L28.0756 1.07V8.3C28.0756 9.41 27.8056 10.27 27.2656 10.88C26.7256 11.49 25.9906 11.795 25.0606 11.795ZM35.9862 7.79L36.1512 7.58C36.3612 7.31 36.5062 7.02 36.5862 6.71C36.6662 6.4 36.7062 5.99 36.7062 5.48V2.975C36.7062 2.595 36.6762 2.345 36.6162 2.225C36.5662 2.105 36.4512 2.045 36.2712 2.045H36.1362C35.8262 2.045 35.5862 2.075 35.4162 2.135C35.2562 2.195 35.1262 2.3 35.0262 2.45C34.9362 2.6 34.8512 2.835 34.7712 3.155L34.6812 3.425L34.2612 3.305V1.07L34.4712 0.889999L34.6812 1.07C34.8012 1.16 34.9762 1.225 35.2062 1.265C35.4362 1.305 35.7412 1.325 36.1212 1.325H38.5362C38.9162 1.325 39.2162 1.305 39.4362 1.265C39.6562 1.225 39.8262 1.16 39.9462 1.07L40.1562 0.889999L40.3812 1.07V3.305L39.9462 3.425L39.8862 3.155C39.7962 2.835 39.7012 2.6 39.6012 2.45C39.5112 2.3 39.3862 2.195 39.2262 2.135C39.0662 2.075 38.8362 2.045 38.5362 2.045H38.3562C38.1862 2.045 38.0712 2.105 38.0112 2.225C37.9612 2.345 37.9362 2.595 37.9362 2.975V6.35C37.9362 6.73 37.9862 6.995 38.0862 7.145C38.1862 7.285 38.3962 7.4 38.7162 7.49L39.0312 7.58L38.8662 8H36.1512L35.9862 7.79ZM44.3766 8.195C43.7466 8.195 43.1966 8.05 42.7266 7.76C42.2566 7.47 41.8916 7.065 41.6316 6.545C41.3716 6.015 41.2416 5.405 41.2416 4.715C41.2416 3.995 41.3866 3.36 41.6766 2.81C41.9666 2.26 42.3766 1.835 42.9066 1.535C43.4466 1.235 44.0666 1.085 44.7666 1.085C45.5066 1.085 46.0766 1.28 46.4766 1.67C46.8866 2.06 47.0916 2.53 47.0916 3.08C47.0916 3.46 46.9866 3.825 46.7766 4.175C46.5766 4.525 46.2766 4.81 45.8766 5.03C45.4866 5.25 45.0266 5.36 44.4966 5.36C44.1966 5.36 43.8716 5.31 43.5216 5.21C43.1716 5.1 42.9966 4.94 42.9966 4.73C42.9966 4.65 43.0166 4.58 43.0566 4.52C43.0966 4.46 43.1416 4.43 43.1916 4.43C43.2216 4.43 43.3116 4.46 43.4616 4.52C43.6216 4.57 43.8266 4.595 44.0766 4.595C44.6266 4.595 45.0516 4.445 45.3516 4.145C45.6516 3.845 45.8016 3.485 45.8016 3.065C45.8016 2.705 45.6816 2.395 45.4416 2.135C45.2116 1.875 44.9016 1.745 44.5116 1.745C43.9216 1.745 43.4616 2.005 43.1316 2.525C42.8116 3.035 42.6516 3.765 42.6516 4.715C42.6516 5.525 42.8216 6.16 43.1616 6.62C43.5116 7.07 44.0116 7.295 44.6616 7.295C45.4616 7.295 46.1216 7.035 46.6416 6.515C46.6716 6.485 46.7116 6.47 46.7616 6.47C46.8416 6.47 46.9216 6.51 47.0016 6.59C47.0916 6.67 47.1366 6.755 47.1366 6.845C47.1366 6.875 47.1266 6.905 47.1066 6.935C47.0866 6.955 47.0766 6.97 47.0766 6.98C46.7366 7.38 46.3316 7.685 45.8616 7.895C45.4016 8.095 44.9066 8.195 44.3766 8.195ZM50.8793 8.195C50.4393 8.195 50.0293 8.07 49.6493 7.82C49.2793 7.56 48.9793 7.185 48.7493 6.695C48.5293 6.195 48.4193 5.59 48.4193 4.88C48.4193 3.71 48.7343 2.785 49.3643 2.105C50.0043 1.425 50.8643 1.085 51.9443 1.085C52.3043 1.085 52.7943 1.14 53.4143 1.25C53.8743 1.33 54.2893 1.385 54.6593 1.415L54.8393 1.58L54.6443 1.835C54.5743 1.955 54.5243 2.05 54.4943 2.12C54.4743 2.18 54.4643 2.265 54.4643 2.375V6.8C54.4643 7.08 54.6093 7.22 54.8993 7.22C55.1193 7.22 55.3443 7.14 55.5743 6.98L55.8293 7.325C55.5893 7.595 55.3343 7.81 55.0643 7.97C54.7943 8.12 54.5493 8.195 54.3293 8.195C53.9493 8.195 53.6743 8.085 53.5043 7.865C53.3343 7.635 53.2493 7.265 53.2493 6.755C52.8893 7.285 52.5143 7.66 52.1243 7.88C51.7443 8.09 51.3293 8.195 50.8793 8.195ZM51.4043 7.13C52.1643 7.13 52.7793 6.72 53.2493 5.9V2.225C52.8593 1.965 52.4193 1.835 51.9293 1.835C51.2793 1.835 50.7693 2.08 50.3993 2.57C50.0393 3.05 49.8593 3.735 49.8593 4.625C49.8593 5.485 50.0043 6.12 50.2943 6.53C50.5943 6.93 50.9643 7.13 51.4043 7.13ZM58.0028 7.79L58.1678 7.58C58.3778 7.31 58.5228 7.02 58.6028 6.71C58.6828 6.4 58.7228 5.99 58.7228 5.48V2.975C58.7228 2.595 58.6928 2.345 58.6328 2.225C58.5828 2.105 58.4678 2.045 58.2878 2.045H58.1528C57.8428 2.045 57.6028 2.075 57.4328 2.135C57.2728 2.195 57.1428 2.3 57.0428 2.45C56.9528 2.6 56.8678 2.835 56.7878 3.155L56.6978 3.425L56.2778 3.305V1.07L56.4878 0.889999L56.6978 1.07C56.8178 1.16 56.9928 1.225 57.2228 1.265C57.4528 1.305 57.7578 1.325 58.1378 1.325H60.5528C60.9328 1.325 61.2328 1.305 61.4528 1.265C61.6728 1.225 61.8428 1.16 61.9628 1.07L62.1728 0.889999L62.3978 1.07V3.305L61.9628 3.425L61.9028 3.155C61.8128 2.835 61.7178 2.6 61.6178 2.45C61.5278 2.3 61.4028 2.195 61.2428 2.135C61.0828 2.075 60.8528 2.045 60.5528 2.045H60.3728C60.2028 2.045 60.0878 2.105 60.0278 2.225C59.9778 2.345 59.9528 2.595 59.9528 2.975V6.35C59.9528 6.73 60.0028 6.995 60.1028 7.145C60.2028 7.285 60.4128 7.4 60.7328 7.49L61.0478 7.58L60.8828 8H58.1678L58.0028 7.79ZM63.4532 11.42L63.6032 11.195C63.7732 10.965 63.8932 10.72 63.9632 10.46C64.0332 10.21 64.0682 9.87 64.0682 9.44V2.825C64.0682 2.695 64.0482 2.595 64.0082 2.525C63.9682 2.455 63.8932 2.405 63.7832 2.375L63.0782 2.21V1.79C63.2182 1.66 63.4882 1.535 63.8882 1.415C64.2882 1.295 64.6382 1.235 64.9382 1.235C65.1682 1.235 65.2832 1.445 65.2832 1.865V1.925C65.8632 1.365 66.5182 1.085 67.2482 1.085C67.7982 1.085 68.2932 1.225 68.7332 1.505C69.1732 1.785 69.5132 2.175 69.7532 2.675C70.0032 3.165 70.1282 3.73 70.1282 4.37C70.1282 5.09 69.9982 5.745 69.7382 6.335C69.4782 6.915 69.1182 7.37 68.6582 7.7C68.2082 8.03 67.7032 8.195 67.1432 8.195C66.6032 8.195 66.1532 8.07 65.7932 7.82C65.7032 7.77 65.6582 7.69 65.6582 7.58C65.6582 7.48 65.6732 7.4 65.7032 7.34C65.7432 7.27 65.7982 7.235 65.8682 7.235C65.8982 7.235 65.9932 7.275 66.1532 7.355C66.3232 7.425 66.5432 7.46 66.8132 7.46C67.3732 7.46 67.8232 7.195 68.1632 6.665C68.5132 6.135 68.6882 5.455 68.6882 4.625C68.6882 3.845 68.5132 3.21 68.1632 2.72C67.8232 2.22 67.3682 1.97 66.7982 1.97C66.4982 1.97 66.2282 2.01 65.9882 2.09C65.7482 2.17 65.5132 2.305 65.2832 2.495V10.115C65.2832 10.465 65.3182 10.71 65.3882 10.85C65.4682 10.99 65.6232 11.085 65.8532 11.135L66.1232 11.195L66.0032 11.6H63.6032L63.4532 11.42ZM6.51889 18.58L6.78889 18.49C7.10889 18.4 7.31889 18.285 7.41889 18.145C7.52889 17.995 7.58389 17.73 7.58389 17.35V13.9C7.58389 13.52 7.52889 13.255 7.41889 13.105C7.31889 12.955 7.10889 12.835 6.78889 12.745L6.51889 12.655L6.65389 12.25H9.35389L9.51889 12.43L9.35389 12.655C9.15389 12.945 9.00889 13.245 8.91889 13.555C8.83889 13.865 8.79889 14.27 8.79889 14.77V17.44C8.79889 17.8 8.84889 18.045 8.94889 18.175C9.04889 18.305 9.25389 18.42 9.56389 18.52L9.83389 18.595L9.69889 19H6.65389L6.51889 18.58ZM12.6089 19.195C12.2389 19.195 11.9289 19.095 11.6789 18.895C11.4389 18.695 11.1939 18.385 10.9439 17.965L9.99889 16.39C9.92889 16.27 9.84389 16.175 9.74389 16.105C9.64389 16.035 9.53889 15.98 9.42889 15.94C9.32889 15.89 9.26389 15.855 9.23389 15.835C9.19389 15.815 9.17389 15.76 9.17389 15.67C9.17389 15.49 9.24889 15.4 9.39889 15.4H9.65389L10.8689 13.915C11.0589 13.695 11.1539 13.435 11.1539 13.135C11.1539 12.975 11.1189 12.82 11.0489 12.67L10.9439 12.445L11.1689 12.25H13.3739L13.5239 12.67L13.2539 12.745C13.0539 12.805 12.8739 12.89 12.7139 13C12.5639 13.1 12.4139 13.245 12.2639 13.435L10.5539 15.565C11.0039 15.785 11.3339 16.065 11.5439 16.405L12.5939 18.115C12.6739 18.245 12.7439 18.34 12.8039 18.4C12.8739 18.46 12.9539 18.49 13.0439 18.49C13.2239 18.49 13.3939 18.43 13.5539 18.31L13.7639 18.685C13.4339 19.025 13.0489 19.195 12.6089 19.195ZM17.7723 19.195C16.7523 19.195 15.9423 18.875 15.3423 18.235C14.7423 17.585 14.4423 16.715 14.4423 15.625C14.4423 14.535 14.7423 13.675 15.3423 13.045C15.9423 12.405 16.7523 12.085 17.7723 12.085C18.4423 12.085 19.0273 12.23 19.5273 12.52C20.0273 12.81 20.4123 13.22 20.6823 13.75C20.9523 14.28 21.0873 14.905 21.0873 15.625C21.0873 16.345 20.9473 16.975 20.6673 17.515C20.3973 18.055 20.0123 18.47 19.5123 18.76C19.0123 19.05 18.4323 19.195 17.7723 19.195ZM17.7423 18.46C18.3123 18.46 18.7723 18.205 19.1223 17.695C19.4823 17.175 19.6623 16.495 19.6623 15.655C19.6623 15.225 19.6023 14.795 19.4823 14.365C19.3623 13.925 19.1623 13.555 18.8823 13.255C18.6123 12.945 18.2573 12.79 17.8173 12.79C17.2273 12.79 16.7523 13.05 16.3923 13.57C16.0423 14.09 15.8673 14.78 15.8673 15.64C15.8673 16.5 16.0323 17.185 16.3623 17.695C16.7023 18.205 17.1623 18.46 17.7423 18.46ZM25.5938 19.195C24.9638 19.195 24.3988 19.04 23.8988 18.73C23.3988 18.42 23.0038 17.995 22.7138 17.455C22.4338 16.915 22.2938 16.31 22.2938 15.64C22.2938 14.92 22.4288 14.295 22.6988 13.765C22.9688 13.225 23.3538 12.81 23.8538 12.52C24.3538 12.23 24.9338 12.085 25.5938 12.085C26.2938 12.085 26.8638 12.255 27.3038 12.595C27.7538 12.925 27.9788 13.355 27.9788 13.885C27.9788 14.275 27.8538 14.595 27.6038 14.845C27.3538 15.085 27.0338 15.205 26.6438 15.205C26.5538 15.205 26.4888 15.195 26.4488 15.175C26.4088 15.155 26.3888 15.12 26.3888 15.07C26.3888 15.04 26.4188 14.975 26.4788 14.875C26.5488 14.775 26.6088 14.655 26.6588 14.515C26.7088 14.365 26.7338 14.175 26.7338 13.945C26.7338 13.585 26.6138 13.305 26.3738 13.105C26.1438 12.895 25.8338 12.79 25.4438 12.79C24.9238 12.79 24.5038 13.045 24.1838 13.555C23.8738 14.055 23.7188 14.72 23.7188 15.55C23.7188 16.39 23.9038 17.055 24.2738 17.545C24.6538 18.035 25.1638 18.28 25.8038 18.28C26.1338 18.28 26.4438 18.225 26.7338 18.115C27.0238 18.005 27.3138 17.83 27.6038 17.59C27.6238 17.57 27.6638 17.56 27.7238 17.56C27.8038 17.56 27.8788 17.605 27.9488 17.695C28.0288 17.775 28.0688 17.86 28.0688 17.95C28.0688 18.02 28.0588 18.055 28.0388 18.055C27.7188 18.425 27.3438 18.71 26.9138 18.91C26.4938 19.1 26.0538 19.195 25.5938 19.195ZM30.5883 18.79L30.7533 18.58C30.9633 18.31 31.1083 18.02 31.1883 17.71C31.2683 17.4 31.3083 16.99 31.3083 16.48V13.975C31.3083 13.595 31.2783 13.345 31.2183 13.225C31.1683 13.105 31.0533 13.045 30.8733 13.045H30.7383C30.4283 13.045 30.1883 13.075 30.0183 13.135C29.8583 13.195 29.7283 13.3 29.6283 13.45C29.5383 13.6 29.4533 13.835 29.3733 14.155L29.2833 14.425L28.8633 14.305V12.07L29.0733 11.89L29.2833 12.07C29.4033 12.16 29.5783 12.225 29.8083 12.265C30.0383 12.305 30.3433 12.325 30.7233 12.325H33.1383C33.5183 12.325 33.8183 12.305 34.0383 12.265C34.2583 12.225 34.4283 12.16 34.5483 12.07L34.7583 11.89L34.9833 12.07V14.305L34.5483 14.425L34.4883 14.155C34.3983 13.835 34.3033 13.6 34.2033 13.45C34.1133 13.3 33.9883 13.195 33.8283 13.135C33.6683 13.075 33.4383 13.045 33.1383 13.045H32.9583C32.7883 13.045 32.6733 13.105 32.6133 13.225C32.5633 13.345 32.5383 13.595 32.5383 13.975V17.35C32.5383 17.73 32.5883 17.995 32.6883 18.145C32.7883 18.285 32.9983 18.4 33.3183 18.49L33.6333 18.58L33.4683 19H30.7533L30.5883 18.79ZM43.0137 19.195C42.0737 19.195 41.3237 18.91 40.7637 18.34C40.2137 17.76 39.9137 16.98 39.8637 16H38.1987V17.44C38.1987 17.8 38.2487 18.05 38.3487 18.19C38.4587 18.32 38.6637 18.43 38.9637 18.52L39.2337 18.595L39.0987 19H36.0537L35.9037 18.58L36.1887 18.49C36.4987 18.4 36.7037 18.285 36.8037 18.145C36.9137 17.995 36.9687 17.73 36.9687 17.35V13.9C36.9687 13.52 36.9137 13.255 36.8037 13.105C36.7037 12.955 36.4987 12.835 36.1887 12.745L35.9037 12.655L36.0537 12.25H38.7537L38.9187 12.43L38.7537 12.655C38.5537 12.925 38.4087 13.22 38.3187 13.54C38.2387 13.85 38.1987 14.26 38.1987 14.77V15.205H39.8637C39.9237 14.235 40.2287 13.475 40.7787 12.925C41.3287 12.365 42.0737 12.085 43.0137 12.085C43.6637 12.085 44.2287 12.23 44.7087 12.52C45.1987 12.81 45.5737 13.22 45.8337 13.75C46.1037 14.28 46.2387 14.905 46.2387 15.625C46.2387 16.345 46.1037 16.975 45.8337 17.515C45.5737 18.045 45.1987 18.46 44.7087 18.76C44.2187 19.05 43.6537 19.195 43.0137 19.195ZM42.9687 18.46C43.3187 18.46 43.6337 18.345 43.9137 18.115C44.2037 17.875 44.4287 17.545 44.5887 17.125C44.7587 16.695 44.8437 16.205 44.8437 15.655C44.8437 15.225 44.7837 14.795 44.6637 14.365C44.5537 13.925 44.3637 13.555 44.0937 13.255C43.8337 12.945 43.4887 12.79 43.0587 12.79C42.4787 12.79 42.0287 13.05 41.7087 13.57C41.3987 14.08 41.2437 14.77 41.2437 15.64C41.2437 16.52 41.3887 17.21 41.6787 17.71C41.9787 18.21 42.4087 18.46 42.9687 18.46ZM46.8299 18.58L47.1449 18.49C47.4549 18.4 47.6599 18.275 47.7599 18.115C47.8699 17.955 47.9549 17.7 48.0149 17.35L48.5549 13.66C48.5649 13.62 48.5699 13.56 48.5699 13.48C48.5699 13.28 48.5049 13.125 48.3749 13.015C48.2549 12.905 48.0649 12.815 47.8049 12.745L47.5499 12.655L47.6699 12.25H49.9499L51.8999 16.39L53.8799 12.25H55.6499L55.8599 12.43L55.6799 12.655C55.3599 13.085 55.1999 13.5 55.1999 13.9C55.1999 14.02 55.2149 14.14 55.2449 14.26L55.7099 16.57C55.7299 16.65 55.7499 16.76 55.7699 16.9C55.8899 17.43 55.9949 17.825 56.0849 18.085C56.1749 18.335 56.3349 18.575 56.5649 18.805L56.4149 19H53.6699L53.5199 18.58L53.7899 18.49C54.0499 18.42 54.2399 18.31 54.3599 18.16C54.4799 18.01 54.5399 17.81 54.5399 17.56C54.5399 17.43 54.5249 17.285 54.4949 17.125L53.9549 13.735L51.9149 18.1H51.4949L49.4399 13.735L48.9299 17.005C48.9099 17.145 48.8999 17.245 48.8999 17.305C48.8999 17.715 49.0499 18.14 49.3499 18.58L49.5149 18.805L49.3349 19H46.9949L46.8299 18.58ZM60.0126 19.195C59.5726 19.195 59.1626 19.07 58.7826 18.82C58.4126 18.56 58.1126 18.185 57.8826 17.695C57.6626 17.195 57.5526 16.59 57.5526 15.88C57.5526 14.71 57.8676 13.785 58.4976 13.105C59.1376 12.425 59.9976 12.085 61.0776 12.085C61.4376 12.085 61.9276 12.14 62.5476 12.25C63.0076 12.33 63.4226 12.385 63.7926 12.415L63.9726 12.58L63.7776 12.835C63.7076 12.955 63.6576 13.05 63.6276 13.12C63.6076 13.18 63.5976 13.265 63.5976 13.375V17.8C63.5976 18.08 63.7426 18.22 64.0326 18.22C64.2526 18.22 64.4776 18.14 64.7076 17.98L64.9626 18.325C64.7226 18.595 64.4676 18.81 64.1976 18.97C63.9276 19.12 63.6826 19.195 63.4626 19.195C63.0826 19.195 62.8076 19.085 62.6376 18.865C62.4676 18.635 62.3826 18.265 62.3826 17.755C62.0226 18.285 61.6476 18.66 61.2576 18.88C60.8776 19.09 60.4626 19.195 60.0126 19.195ZM60.5376 18.13C61.2976 18.13 61.9126 17.72 62.3826 16.9V13.225C61.9926 12.965 61.5526 12.835 61.0626 12.835C60.4126 12.835 59.9026 13.08 59.5326 13.57C59.1726 14.05 58.9926 14.735 58.9926 15.625C58.9926 16.485 59.1376 17.12 59.4276 17.53C59.7276 17.93 60.0976 18.13 60.5376 18.13Z" fill="#002755"/>
</svg>
